<?xml version="1.0" standalone="no"?><!DOCTYPE svg PUBLIC "-//W3C//DTD SVG 1.1//EN" "http://www.w3.org/Graphics/SVG/1.1/DTD/svg11.dtd"><svg height="1024" node-id="1" sillyvg="true" template-height="1024" template-width="1024" version="1.1" viewBox="0 0 1024 1024" width="1024" xmlns="http://www.w3.org/2000/svg" xmlns:xlink="http://www.w3.org/1999/xlink"><defs node-id="714"><linearGradient gradientUnits="objectBoundingBox" id="Gradient_1" node-id="3" spreadMethod="pad" x1="321.30002" x2="507.5" y1="1501.9375" y2="1020.8624"><stop offset="0.015686275" stop-color="#a0a6bf"></stop><stop offset="0.3843136" stop-color="#a0a6bf"></stop><stop offset="0.38431373" stop-color="#adb2c8"></stop><stop offset="0.39607844" stop-color="#c6c9d9"></stop><stop offset="0.40392157" stop-color="#d9dae6"></stop><stop offset="0.4117647" stop-color="#e3e4ed"></stop><stop offset="0.42352942" stop-color="#e7e7f0"></stop></linearGradient><linearGradient gradientUnits="objectBoundingBox" id="Gradient_2" node-id="11" spreadMethod="pad" x1="273.525" x2="895.47504" y1="1515.15" y2="1515.15"><stop offset="0.015686275" stop-color="#a0a6bf"></stop><stop offset="0.3843136" stop-color="#a0a6bf"></stop><stop offset="0.38431373" stop-color="#a4aac1"></stop><stop offset="0.4" stop-color="#b6bbce"></stop><stop offset="0.41568628" stop-color="#c1c5d5"></stop><stop offset="0.43137255" stop-color="#c4c8d7"></stop><stop offset="0.9372549" stop-color="#c4c8d7"></stop><stop offset="0.98039216" stop-color="#c4c8d7"></stop><stop offset="1" stop-color="#c4c8d7"></stop></linearGradient></defs><g node-id="2653"><g node-id="2826"><g node-id="2999"><path d="M 477.70 445.80 L 470.40 446.60 L 464.80 448.70 L 100.00 660.70 L 96.00 664.40 L 94.80 668.50 L 96.00 672.20 L 100.40 675.80 L 287.30 732.90 L 499.40 855.40 L 505.90 858.10 L 512.70 859.20 L 512.70 859.60 L 552.60 859.60 L 552.60 859.20 L 560.10 858.10 L 567.00 855.40 L 921.90 648.90 L 927.50 644.00 L 929.20 638.70 L 927.50 633.40 L 921.90 628.60 L 692.30 495.90 L 686.60 493.80 L 679.30 493.10 L 672.30 493.80 L 666.40 495.90 L 663.60 497.70 L 660.80 495.90 L 650.60 492.90 L 639.10 494.20 L 490.60 448.70 L 484.70 446.60 L 477.70 445.80 Z" fill="#f5f2e8" fill-rule="nonzero" group-id="1,174,347" node-id="759" stroke="none" target-height="413.8" target-width="834.4" target-x="94.8" target-y="445.8"></path></g></g></g><g node-id="2654"><g node-id="2827"><g node-id="3000"><path d="M 579.90 164.50 L 574.00 166.20 L 217.30 372.00 L 212.00 376.60 L 208.20 383.90 L 206.60 392.00 L 207.50 400.00 L 284.80 692.60 L 288.60 699.80 L 295.00 702.10 L 300.90 702.40 L 300.60 701.00 L 663.20 491.40 L 667.30 488.00 L 670.20 482.60 L 671.60 476.30 L 670.90 470.40 L 593.60 177.40 L 590.70 171.20 L 585.50 166.60 L 585.90 164.80 L 579.90 164.50 Z" fill="url(#Gradient_1)" fill-rule="nonzero" group-id="2,175,348" node-id="770" stroke="none" target-height="537.9" target-width="464.99997" target-x="206.6" target-y="164.5"></path></g></g></g><g node-id="2655"><g node-id="2828"><g node-id="3001"><path d="M 591.50 166.20 L 585.50 165.00 L 579.20 166.90 L 222.60 372.70 L 217.40 377.20 L 213.50 384.20 L 211.90 392.60 L 212.80 400.40 L 290.10 693.30 L 292.60 698.50 L 296.40 701.70 L 300.90 702.60 L 305.50 701.00 L 669.10 491.00 L 673.10 487.70 L 676.10 482.30 L 677.30 476.00 L 676.50 470.00 L 599.10 177.10 L 596.00 170.10 L 591.50 166.20 Z" fill="#494855" fill-rule="nonzero" group-id="3,176,349" node-id="781" stroke="none" target-height="537.6" target-width="465.4" target-x="211.9" target-y="165"></path></g></g></g><g node-id="2656"><g node-id="2829"><g node-id="3002"><path d="M 589.00 174.60 L 219.10 388.10 L 294.70 674.10 L 664.60 460.60 L 589.00 174.60 Z" fill="#7d7ced" fill-rule="nonzero" group-id="4,177,350" node-id="792" stroke="none" target-height="499.49997" target-width="445.49997" target-x="219.1" target-y="174.6"></path></g></g></g><g node-id="2657"><g node-id="2830"><g node-id="3003"><path d="M 297.40 460.90 L 296.40 459.40 L 294.70 459.90 L 282.10 467.20 L 279.60 466.90 L 279.30 466.10 L 276.80 465.80 L 265.60 472.10 L 263.80 475.20 L 263.80 478.10 L 269.10 499.70 L 271.20 500.80 L 300.90 483.70 L 302.00 480.90 L 297.40 460.90 Z" fill="#fee471" fill-rule="nonzero" group-id="5,178,351" node-id="803" stroke="none" target-height="41.399994" target-width="38.200012" target-x="263.8" target-y="459.4"></path></g></g></g><g node-id="2658"><g node-id="2831"><g node-id="3004"><path d="M 297.80 462.60 L 295.70 461.60 L 265.90 478.80 L 264.90 481.60 L 269.10 499.70 L 271.20 500.80 L 300.90 483.70 L 302.00 480.90 L 297.80 462.60 Z" fill="#feeb91" fill-rule="nonzero" group-id="6,179,352" node-id="814" stroke="none" target-height="39.19998" target-width="37.100006" target-x="264.9" target-y="461.6"></path></g></g></g><g node-id="2659"><g node-id="2832"><g node-id="3005"><path d="M 282.10 409.80 L 281.00 408.30 L 279.30 408.70 L 266.70 416.10 L 264.20 415.70 L 263.80 415.10 L 261.40 414.70 L 250.20 421.00 L 248.50 424.20 L 248.50 427.00 L 253.70 448.70 L 255.80 449.70 L 285.60 432.60 L 286.60 429.70 L 282.10 409.80 Z" fill="#fee471" fill-rule="nonzero" group-id="7,180,353" node-id="825" stroke="none" target-height="41.400024" target-width="38.100006" target-x="248.5" target-y="408.3"></path></g></g></g><g node-id="2660"><g node-id="2833"><g node-id="3006"><path d="M 282.40 411.60 L 280.30 410.50 L 250.60 427.70 L 249.50 430.50 L 253.70 448.70 L 255.80 449.70 L 285.60 432.60 L 286.60 429.70 L 282.40 411.60 Z" fill="#feeb91" fill-rule="nonzero" group-id="8,181,354" node-id="836" stroke="none" target-height="39.200012" target-width="37.100006" target-x="249.5" target-y="410.5"></path></g></g></g><g node-id="2661"><g node-id="2834"><g node-id="3007"><path d="M 583.80 224.30 L 582.70 223.00 L 581.00 223.20 L 568.40 230.60 L 565.90 230.20 L 565.60 229.60 L 563.50 229.20 L 551.90 235.50 L 550.10 238.70 L 550.10 240.70 L 555.80 263.20 L 556.20 264.50 L 557.50 264.20 L 587.30 247.10 L 588.60 244.20 L 583.80 224.30 Z" fill="#fee471" fill-rule="nonzero" group-id="9,182,355" node-id="847" stroke="none" target-height="41.5" target-width="38.5" target-x="550.1" target-y="223"></path></g></g></g><g node-id="2662"><g node-id="2835"><g node-id="3008"><path d="M 584.10 226.10 L 582.00 225.00 L 552.30 242.20 L 551.20 245.00 L 555.80 263.20 L 556.20 264.50 L 557.50 264.20 L 587.30 247.10 L 588.60 244.20 L 584.10 226.10 Z" fill="#feeb91" fill-rule="nonzero" group-id="10,183,356" node-id="858" stroke="none" target-height="39.5" target-width="37.399963" target-x="551.2" target-y="225"></path></g></g></g><g node-id="2663"><g node-id="2836"><g node-id="3009"><path d="M 664.60 460.60 L 661.10 448.30 L 291.50 661.80 L 294.70 674.10 L 664.60 460.60 Z" fill="#c4c8d7" fill-rule="nonzero" group-id="11,184,357" node-id="869" stroke="none" target-height="225.79999" target-width="373.09998" target-x="291.5" target-y="448.3"></path></g></g></g><g node-id="2664"><g node-id="2837"><g node-id="3010"><path d="M 586.90 460.20 L 531.90 252.00 L 309.00 380.70 L 363.90 589.00 L 586.90 460.20 Z" fill="#eff0f5" fill-rule="nonzero" group-id="12,185,358" node-id="880" stroke="none" target-height="337" target-width="277.90002" target-x="309" target-y="252"></path></g></g></g><g node-id="2665"><g node-id="2838"><g node-id="3011"><path d="M 539.30 279.20 L 531.90 252.00 L 309.00 380.70 L 316.00 408.10 L 539.30 279.20 Z" fill="#c4c8d7" fill-rule="nonzero" group-id="13,186,359" node-id="891" stroke="none" target-height="156.1" target-width="230.29999" target-x="309" target-y="252"></path></g></g></g><g node-id="2666"><g node-id="2839"><g node-id="3012"><path d="M 318.40 386.30 L 321.30 397.90 L 336.30 389.20 L 333.20 378.00 L 318.40 386.30 Z" fill="#fa7a80" fill-rule="nonzero" group-id="14,187,360" node-id="902" stroke="none" target-height="19.899994" target-width="17.899994" target-x="318.4" target-y="378"></path></g></g></g><g node-id="2667"><g node-id="2840"><g node-id="3013"><path d="M 509.60 206.80 L 354.90 296.10 L 354.90 651.30 L 509.60 562.00 L 509.60 206.80 Z" fill="#ffffff" fill-opacity="0.2" fill-rule="nonzero" group-id="15,188,361" node-id="913" stroke="none" target-height="444.5" target-width="154.70001" target-x="354.9" target-y="206.8"></path></g></g></g><g node-id="2668"><g node-id="2841"><g node-id="3014"><path d="M 681.10 491.40 L 673.80 492.20 L 668.10 494.50 L 327.60 692.20 L 304.40 695.10 L 304.40 709.70 L 305.30 713.70 L 309.70 717.50 L 535.10 847.70 L 542.90 850.80 L 552.60 851.90 L 562.30 850.80 L 570.10 847.70 L 919.10 644.70 L 924.30 640.40 L 926.40 635.20 L 926.40 620.90 L 915.20 622.20 L 693.70 494.50 L 688.00 492.20 L 681.10 491.40 Z" fill="url(#Gradient_2)" fill-rule="nonzero" group-id="16,189,362" node-id="924" stroke="none" target-height="360.50003" target-width="622" target-x="304.4" target-y="491.4"></path></g></g></g><g node-id="2669"><g node-id="2842"><g node-id="3015"><path d="M 681.10 477.70 L 673.80 478.50 L 668.10 480.90 L 309.70 689.10 L 305.60 692.70 L 304.40 696.50 L 305.70 700.40 L 309.70 703.80 L 535.10 834.00 L 542.90 837.10 L 552.60 838.20 L 562.30 837.10 L 570.10 834.00 L 919.10 631.40 L 924.70 626.50 L 926.40 621.20 L 924.70 615.90 L 919.10 611.10 L 693.70 480.90 L 688.00 478.50 L 681.10 477.70 Z" fill="#eff0f5" fill-rule="nonzero" group-id="17,190,363" node-id="935" stroke="none" target-height="360.5" target-width="622" target-x="304.4" target-y="477.7"></path></g></g></g><g node-id="2670"><g node-id="2843"><g node-id="3016"><path d="M 684.20 487.90 L 675.80 490.00 L 325.10 693.70 L 322.40 696.10 L 321.60 698.60 L 322.60 701.10 L 325.40 703.50 L 458.40 780.10 L 466.90 782.20 L 475.30 780.10 L 825.60 576.40 L 828.30 574.00 L 829.10 571.50 L 828.30 569.00 L 825.60 566.60 L 692.60 490.00 L 684.20 487.90 Z" fill="#e1e3eb" fill-rule="nonzero" group-id="18,191,364" node-id="946" stroke="none" target-height="294.30002" target-width="507.49997" target-x="321.6" target-y="487.9"></path></g></g></g><g node-id="2671"><g node-id="2844"><g node-id="3017"><path d="M 811.60 681.40 L 808.80 677.60 L 742.60 639.40 L 735.60 637.10 L 728.60 639.40 L 583.40 723.70 L 580.60 728.00 L 581.30 730.10 L 583.40 731.80 L 649.60 770.00 L 656.60 771.90 L 663.60 770.00 L 808.80 685.60 L 811.60 681.40 Z" fill="#d9dbe6" fill-rule="nonzero" group-id="19,192,365" node-id="957" stroke="none" target-height="134.80005" target-width="231" target-x="580.6" target-y="637.1"></path></g></g></g><g node-id="2672"><g node-id="2845"><g node-id="3018"><path d="M 742.60 639.40 L 735.60 637.10 L 728.60 639.40 L 583.40 723.70 L 580.70 726.20 L 580.60 728.70 L 583.40 725.80 L 728.60 641.20 L 735.60 639.70 L 742.60 641.20 L 808.80 679.30 L 811.30 682.50 L 811.20 680.20 L 808.80 677.60 L 742.60 639.40 Z" fill="#c5c9d7" fill-rule="nonzero" group-id="20,193,366" node-id="968" stroke="none" target-height="91.60004" target-width="230.70001" target-x="580.6" target-y="637.1"></path></g></g></g><g node-id="2673"><g node-id="2846"><g node-id="3019"><path d="M 345.40 704.50 L 344.00 704.50 L 344.00 706.30 L 345.40 708.00 L 361.50 717.50 L 367.40 717.50 L 383.60 708.00 L 384.90 706.30 L 384.90 704.50 L 383.20 704.50 L 367.40 695.10 L 361.50 695.10 L 345.40 704.50 Z" fill="#393842" fill-rule="nonzero" group-id="21,194,367" node-id="979" stroke="none" target-height="22.400024" target-width="40.899994" target-x="344" target-y="695.1"></path></g></g></g><g node-id="2674"><g node-id="2847"><g node-id="3020"><path d="M 448.30 763.70 L 446.90 763.70 L 446.90 765.70 L 448.00 767.20 L 464.40 776.60 L 467.20 777.60 L 470.00 776.60 L 486.50 767.20 L 487.50 765.40 L 487.50 763.70 L 486.10 763.70 L 470.00 754.60 L 467.10 753.70 L 464.10 754.60 L 448.30 763.70 Z" fill="#393842" fill-rule="nonzero" group-id="22,195,368" node-id="990" stroke="none" target-height="23.899963" target-width="40.600006" target-x="446.9" target-y="753.7"></path></g></g></g><g node-id="2675"><g node-id="2848"><g node-id="3021"><path d="M 511.60 752.50 L 512.70 750.70 L 512.70 748.90 L 511.30 748.90 L 495.20 739.90 L 492.40 738.80 L 489.60 739.90 L 473.50 748.90 L 472.10 748.90 L 472.10 751.10 L 473.20 752.50 L 489.60 761.90 L 492.70 762.80 L 495.60 761.90 L 511.60 752.50 Z" fill="#393842" fill-rule="nonzero" group-id="23,196,369" node-id="1001" stroke="none" target-height="24" target-width="40.600006" target-x="472.1" target-y="738.8"></path></g></g></g><g node-id="2676"><g node-id="2849"><g node-id="3022"><path d="M 536.90 737.70 L 538.30 736.00 L 538.30 734.20 L 536.50 734.20 L 520.80 725.20 L 517.90 724.30 L 514.80 725.20 L 498.70 734.20 L 497.30 734.20 L 497.30 736.40 L 498.70 737.70 L 514.80 747.20 L 517.90 748.20 L 520.80 747.20 L 536.90 737.70 Z" fill="#393842" fill-rule="nonzero" group-id="24,197,370" node-id="1012" stroke="none" target-height="23.900024" target-width="41" target-x="497.3" target-y="724.3"></path></g></g></g><g node-id="2677"><g node-id="2850"><g node-id="3023"><path d="M 546.00 710.10 L 540.00 710.10 L 524.30 719.50 L 522.90 719.50 L 522.90 721.30 L 523.90 723.10 L 540.40 732.50 L 543.20 733.50 L 546.30 732.50 L 562.40 723.10 L 563.50 721.30 L 563.50 719.50 L 562.10 719.50 L 546.00 710.10 Z" fill="#393842" fill-rule="nonzero" group-id="25,198,371" node-id="1023" stroke="none" target-height="23.400024" target-width="40.599976" target-x="522.9" target-y="710.1"></path></g></g></g><g node-id="2678"><g node-id="2851"><g node-id="3024"><path d="M 369.60 691.60 L 370.60 693.30 L 387.10 702.80 L 392.60 702.80 L 409.10 693.30 L 410.20 691.60 L 410.20 689.50 L 408.80 689.80 L 392.60 680.40 L 386.70 680.40 L 370.90 689.80 L 369.60 689.80 L 369.60 691.60 Z" fill="#393842" fill-rule="nonzero" group-id="26,199,372" node-id="1034" stroke="none" target-height="22.399963" target-width="40.600006" target-x="369.6" target-y="680.4"></path></g></g></g><g node-id="2679"><g node-id="2852"><g node-id="3025"><path d="M 410.50 696.10 L 409.10 696.10 L 409.10 698.20 L 410.50 699.60 L 426.60 709.10 L 429.70 710.10 L 432.60 709.10 L 448.60 699.60 L 450.10 697.90 L 450.10 696.10 L 448.30 696.10 L 432.60 686.60 L 426.60 686.60 L 410.50 696.10 Z" fill="#393842" fill-rule="nonzero" group-id="27,200,373" node-id="1045" stroke="none" target-height="23.5" target-width="41" target-x="409.1" target-y="686.6"></path></g></g></g><g node-id="2680"><g node-id="2853"><g node-id="3026"><path d="M 474.20 684.90 L 475.30 683.20 L 475.30 681.40 L 473.90 681.40 L 457.80 672.00 L 451.80 672.00 L 436.10 681.40 L 434.60 681.40 L 434.60 683.20 L 435.70 684.90 L 452.20 694.40 L 455.00 695.40 L 458.10 694.40 L 474.20 684.90 Z" fill="#393842" fill-rule="nonzero" group-id="28,201,374" node-id="1056" stroke="none" target-height="23.400024" target-width="40.69998" target-x="434.6" target-y="672"></path></g></g></g><g node-id="2681"><g node-id="2854"><g node-id="3027"><path d="M 487.10 707.30 L 488.60 705.60 L 488.60 703.50 L 486.80 703.50 L 471.10 694.40 L 468.20 693.50 L 465.10 694.40 L 449.00 703.80 L 447.60 703.80 L 447.60 705.60 L 449.00 707.30 L 465.10 716.70 L 471.10 716.70 L 487.10 707.30 Z" fill="#393842" fill-rule="nonzero" group-id="29,202,375" node-id="1067" stroke="none" target-height="23.200012" target-width="41" target-x="447.6" target-y="693.5"></path></g></g></g><g node-id="2682"><g node-id="2855"><g node-id="3028"><path d="M 497.00 709.40 L 493.90 708.40 L 491.00 709.40 L 474.90 718.50 L 473.50 718.50 L 473.50 720.60 L 474.90 722.00 L 491.00 731.50 L 494.10 732.30 L 497.00 731.50 L 513.10 722.00 L 514.40 720.20 L 514.40 718.50 L 512.70 718.50 L 497.00 709.40 Z" fill="#393842" fill-rule="nonzero" group-id="30,203,376" node-id="1078" stroke="none" target-height="23.899963" target-width="40.900024" target-x="473.5" target-y="708.4"></path></g></g></g><g node-id="2683"><g node-id="2856"><g node-id="3029"><path d="M 499.10 705.90 L 500.10 707.30 L 516.60 716.70 L 519.40 717.80 L 522.10 716.70 L 538.60 707.30 L 539.60 705.60 L 539.60 703.80 L 538.30 703.80 L 522.10 694.70 L 519.30 693.80 L 516.20 694.70 L 500.50 703.80 L 499.10 703.80 L 499.10 705.90 Z" fill="#393842" fill-rule="nonzero" group-id="31,204,377" node-id="1089" stroke="none" target-height="24" target-width="40.49997" target-x="499.1" target-y="693.8"></path></g></g></g><g node-id="2684"><g node-id="2857"><g node-id="3030"><path d="M 524.30 691.20 L 525.30 692.60 L 541.80 702.10 L 544.80 702.90 L 547.70 702.10 L 563.80 692.60 L 564.90 690.90 L 564.90 689.10 L 563.50 689.10 L 547.40 680.00 L 544.60 679.00 L 541.80 680.00 L 525.60 689.10 L 524.30 689.10 L 524.30 691.20 Z" fill="#393842" fill-rule="nonzero" group-id="32,205,378" node-id="1100" stroke="none" target-height="23.900024" target-width="40.600037" target-x="524.3" target-y="679"></path></g></g></g><g node-id="2685"><g node-id="2858"><g node-id="3031"><path d="M 572.90 665.30 L 570.00 664.40 L 567.00 665.30 L 550.90 674.40 L 549.50 674.40 L 549.50 676.50 L 550.90 677.90 L 567.00 687.40 L 570.00 688.40 L 572.90 687.40 L 589.00 677.90 L 590.40 676.20 L 590.40 674.40 L 588.60 674.40 L 572.90 665.30 Z" fill="#393842" fill-rule="nonzero" group-id="33,206,379" node-id="1111" stroke="none" target-height="24" target-width="40.900024" target-x="549.5" target-y="664.4"></path></g></g></g><g node-id="2686"><g node-id="2859"><g node-id="3032"><path d="M 614.60 663.20 L 615.60 661.50 L 615.60 659.70 L 614.20 659.70 L 598.10 650.30 L 592.10 650.30 L 576.40 659.70 L 575.00 659.70 L 575.00 661.50 L 576.10 663.20 L 592.50 672.70 L 595.40 673.70 L 598.50 672.70 L 614.60 663.20 Z" fill="#393842" fill-rule="nonzero" group-id="34,207,380" node-id="1122" stroke="none" target-height="23.400024" target-width="40.599976" target-x="575" target-y="650.3"></path></g></g></g><g node-id="2687"><g node-id="2860"><g node-id="3033"><path d="M 639.80 648.50 L 641.10 646.80 L 641.10 645.00 L 639.40 645.00 L 623.60 635.60 L 617.70 635.60 L 601.60 645.00 L 600.20 645.00 L 600.20 646.80 L 601.60 648.50 L 617.70 658.00 L 623.60 658.00 L 639.80 648.50 Z" fill="#393842" fill-rule="nonzero" group-id="35,208,381" node-id="1133" stroke="none" target-height="22.400024" target-width="40.899963" target-x="600.2" target-y="635.6"></path></g></g></g><g node-id="2688"><g node-id="2861"><g node-id="3034"><path d="M 648.90 620.90 L 642.90 620.90 L 626.80 630.30 L 625.80 630.30 L 625.80 632.10 L 626.80 633.80 L 643.30 643.20 L 648.90 643.20 L 665.30 633.80 L 666.40 632.10 L 666.40 630.30 L 665.00 630.30 L 648.90 620.90 Z" fill="#393842" fill-rule="nonzero" group-id="36,209,382" node-id="1144" stroke="none" target-height="22.299988" target-width="40.600037" target-x="625.8" target-y="620.9"></path></g></g></g><g node-id="2689"><g node-id="2862"><g node-id="3035"><path d="M 690.50 619.10 L 691.60 617.40 L 691.60 615.60 L 690.10 615.60 L 674.10 606.20 L 668.50 606.20 L 652.40 615.60 L 651.00 615.60 L 651.00 617.40 L 652.00 619.10 L 668.50 628.60 L 674.40 628.60 L 690.50 619.10 Z" fill="#393842" fill-rule="nonzero" group-id="37,210,383" node-id="1155" stroke="none" target-height="22.399963" target-width="40.599976" target-x="651" target-y="606.2"></path></g></g></g><g node-id="2690"><g node-id="2863"><g node-id="3036"><path d="M 693.70 613.80 L 699.60 613.80 L 715.70 604.40 L 717.10 602.70 L 717.10 600.60 L 715.40 600.60 L 699.60 591.50 L 696.70 590.60 L 693.70 591.50 L 677.60 600.90 L 676.10 600.90 L 676.10 602.70 L 677.60 604.40 L 693.70 613.80 Z" fill="#393842" fill-rule="nonzero" group-id="38,211,384" node-id="1166" stroke="none" target-height="23.200012" target-width="41" target-x="676.1" target-y="590.6"></path></g></g></g><g node-id="2691"><g node-id="2864"><g node-id="3037"><path d="M 743.00 618.10 L 744.10 616.30 L 744.10 614.60 L 742.60 614.60 L 726.50 605.50 L 723.80 604.70 L 720.60 605.50 L 704.90 614.60 L 703.40 614.60 L 703.40 616.70 L 704.50 618.10 L 721.00 627.50 L 723.80 628.50 L 726.90 627.50 L 743.00 618.10 Z" fill="#393842" fill-rule="nonzero" group-id="39,212,385" node-id="1177" stroke="none" target-height="23.799988" target-width="40.69995" target-x="703.4" target-y="604.7"></path></g></g></g><g node-id="2692"><g node-id="2865"><g node-id="3038"><path d="M 768.20 603.40 L 769.60 601.60 L 769.60 599.90 L 767.90 599.90 L 752.10 590.40 L 746.10 590.40 L 730.10 599.90 L 728.60 599.90 L 728.60 601.60 L 730.10 603.40 L 746.10 612.80 L 749.20 613.70 L 752.10 612.80 L 768.20 603.40 Z" fill="#393842" fill-rule="nonzero" group-id="40,213,386" node-id="1188" stroke="none" target-height="23.299988" target-width="41" target-x="728.6" target-y="590.4"></path></g></g></g><g node-id="2693"><g node-id="2866"><g node-id="3039"><path d="M 819.70 573.60 L 820.70 571.90 L 820.70 570.10 L 819.30 570.10 L 803.20 560.70 L 797.20 560.70 L 781.50 570.10 L 780.10 570.10 L 780.10 571.90 L 781.10 573.60 L 797.60 583.10 L 803.60 583.10 L 819.70 573.60 Z" fill="#393842" fill-rule="nonzero" group-id="41,214,387" node-id="1199" stroke="none" target-height="22.399963" target-width="40.600037" target-x="780.1" target-y="560.7"></path></g></g></g><g node-id="2694"><g node-id="2867"><g node-id="3040"><path d="M 795.10 555.10 L 793.80 555.40 L 777.70 546.00 L 772.10 546.00 L 756.00 555.40 L 754.50 555.40 L 754.50 556.10 L 753.50 556.80 L 752.10 556.80 L 752.10 558.60 L 752.50 558.60 L 753.50 560.30 L 769.60 569.40 L 772.70 570.40 L 775.60 569.40 L 794.10 558.90 L 795.10 557.20 L 795.10 555.10 Z" fill="#393842" fill-rule="nonzero" group-id="42,215,388" node-id="1210" stroke="none" target-height="24.400024" target-width="43" target-x="752.1" target-y="546"></path></g></g></g><g node-id="2695"><g node-id="2868"><g node-id="3041"><path d="M 741.20 589.70 L 742.30 588.00 L 742.30 585.90 L 740.90 585.90 L 724.80 576.70 L 721.90 575.90 L 718.90 576.70 L 703.10 586.20 L 701.70 586.20 L 701.70 588.00 L 702.80 589.70 L 719.20 599.20 L 725.10 599.20 L 741.20 589.70 Z" fill="#393842" fill-rule="nonzero" group-id="43,216,389" node-id="1221" stroke="none" target-height="23.299988" target-width="40.599976" target-x="701.7" target-y="575.9"></path></g></g></g><g node-id="2696"><g node-id="2869"><g node-id="3042"><path d="M 766.50 575.00 L 767.90 573.20 L 767.90 571.20 L 766.10 571.20 L 750.40 562.10 L 747.30 561.00 L 744.40 562.10 L 728.30 571.50 L 726.90 571.50 L 726.90 573.20 L 728.30 575.00 L 744.40 584.10 L 747.50 585.00 L 750.40 584.10 L 766.50 575.00 Z" fill="#393842" fill-rule="nonzero" group-id="44,217,390" node-id="1232" stroke="none" target-height="24" target-width="41" target-x="726.9" target-y="561"></path></g></g></g><g node-id="2697"><g node-id="2870"><g node-id="3043"><path d="M 474.20 692.60 L 490.60 701.70 L 493.50 702.70 L 496.60 701.70 L 512.70 692.60 L 513.80 690.90 L 513.80 688.70 L 512.40 688.70 L 496.30 679.70 L 493.50 679.00 L 490.30 679.70 L 474.60 689.10 L 473.20 689.10 L 473.20 690.90 L 474.20 692.60 Z" fill="#393842" fill-rule="nonzero" group-id="45,218,391" node-id="1243" stroke="none" target-height="23.700012" target-width="40.599976" target-x="473.2" target-y="679"></path></g></g></g><g node-id="2698"><g node-id="2871"><g node-id="3044"><path d="M 515.90 687.00 L 518.90 687.90 L 521.80 687.00 L 537.90 677.90 L 539.30 676.20 L 539.30 674.10 L 537.60 674.10 L 521.80 665.00 L 518.70 663.90 L 515.90 665.00 L 499.80 674.10 L 498.40 674.40 L 498.40 676.20 L 499.80 677.90 L 515.90 687.00 Z" fill="#393842" fill-rule="nonzero" group-id="46,219,392" node-id="1254" stroke="none" target-height="24" target-width="40.899994" target-x="498.4" target-y="663.9"></path></g></g></g><g node-id="2699"><g node-id="2872"><g node-id="3045"><path d="M 523.90 661.50 L 524.90 662.90 L 541.10 672.30 L 544.10 673.40 L 547.00 672.30 L 563.50 662.90 L 564.50 661.50 L 564.50 659.40 L 563.10 659.40 L 547.00 650.30 L 544.10 649.40 L 541.10 650.30 L 524.90 659.40 L 523.60 659.40 L 523.60 661.50 L 523.90 661.50 Z" fill="#393842" fill-rule="nonzero" group-id="47,220,393" node-id="1265" stroke="none" target-height="24" target-width="40.900024" target-x="523.6" target-y="649.4"></path></g></g></g><g node-id="2700"><g node-id="2873"><g node-id="3046"><path d="M 588.60 648.20 L 589.70 646.80 L 589.70 644.70 L 588.30 644.70 L 572.20 635.60 L 569.40 634.50 L 566.60 635.60 L 550.50 644.70 L 549.10 644.70 L 549.10 646.80 L 550.10 648.20 L 566.60 657.60 L 569.70 658.50 L 572.60 657.60 L 588.60 648.20 Z" fill="#393842" fill-rule="nonzero" group-id="48,221,394" node-id="1276" stroke="none" target-height="24" target-width="40.600037" target-x="549.1" target-y="634.5"></path></g></g></g><g node-id="2701"><g node-id="2874"><g node-id="3047"><path d="M 613.90 633.50 L 615.30 631.70 L 615.30 630.00 L 613.50 630.00 L 597.80 620.90 L 594.90 620.00 L 591.80 620.90 L 575.70 630.00 L 574.30 630.00 L 574.30 632.10 L 575.70 633.50 L 591.80 642.90 L 594.90 643.90 L 597.80 642.90 L 613.90 633.50 Z" fill="#393842" fill-rule="nonzero" group-id="49,222,395" node-id="1287" stroke="none" target-height="23.900024" target-width="41" target-x="574.3" target-y="620"></path></g></g></g><g node-id="2702"><g node-id="2875"><g node-id="3048"><path d="M 623.00 606.20 L 620.10 605.30 L 617.00 606.20 L 601.30 615.20 L 599.90 615.20 L 599.90 617.40 L 600.90 618.70 L 617.40 628.20 L 620.20 629.20 L 623.30 628.20 L 639.40 618.70 L 640.50 617.00 L 640.50 615.20 L 639.10 615.20 L 623.00 606.20 Z" fill="#393842" fill-rule="nonzero" group-id="50,223,396" node-id="1298" stroke="none" target-height="23.900024" target-width="40.599976" target-x="599.9" target-y="605.3"></path></g></g></g><g node-id="2703"><g node-id="2876"><g node-id="3049"><path d="M 626.50 600.60 L 625.10 600.60 L 625.10 602.70 L 626.50 604.00 L 642.50 613.50 L 645.60 614.40 L 648.50 613.50 L 664.60 604.00 L 666.00 602.30 L 666.00 600.60 L 664.30 600.60 L 648.50 591.50 L 645.40 590.40 L 642.50 591.50 L 626.50 600.60 Z" fill="#393842" fill-rule="nonzero" group-id="51,224,397" node-id="1309" stroke="none" target-height="24" target-width="40.900024" target-x="625.1" target-y="590.4"></path></g></g></g><g node-id="2704"><g node-id="2877"><g node-id="3050"><path d="M 689.80 589.40 L 691.20 587.60 L 691.20 585.90 L 689.50 585.90 L 673.70 576.70 L 670.80 575.90 L 667.80 576.70 L 651.60 585.90 L 650.30 585.90 L 650.30 588.00 L 650.60 588.00 L 651.60 589.40 L 667.80 598.80 L 670.80 599.80 L 673.70 598.80 L 689.80 589.40 Z" fill="#393842" fill-rule="nonzero" group-id="52,225,398" node-id="1320" stroke="none" target-height="23.899963" target-width="40.900024" target-x="650.3" target-y="575.9"></path></g></g></g><g node-id="2705"><g node-id="2878"><g node-id="3051"><path d="M 715.40 574.60 L 716.40 572.90 L 716.40 571.20 L 715.00 571.20 L 698.90 561.70 L 693.30 561.70 L 677.20 571.20 L 675.80 571.20 L 675.80 573.20 L 676.90 574.60 L 693.30 584.10 L 696.40 585.00 L 699.30 584.10 L 715.40 574.60 Z" fill="#393842" fill-rule="nonzero" group-id="53,226,399" node-id="1331" stroke="none" target-height="23.299988" target-width="40.600037" target-x="675.8" target-y="561.7"></path></g></g></g><g node-id="2706"><g node-id="2879"><g node-id="3052"><path d="M 499.40 670.20 L 500.80 668.50 L 500.80 666.70 L 499.10 666.70 L 483.30 657.20 L 477.40 657.20 L 461.30 666.70 L 459.90 666.70 L 459.90 668.50 L 461.30 670.20 L 477.40 679.70 L 483.30 679.70 L 499.40 670.20 Z" fill="#393842" fill-rule="nonzero" group-id="54,227,400" node-id="1342" stroke="none" target-height="22.5" target-width="40.899994" target-x="459.9" target-y="657.2"></path></g></g></g><g node-id="2707"><g node-id="2880"><g node-id="3053"><path d="M 524.90 655.50 L 526.00 653.70 L 526.00 652.00 L 524.60 652.00 L 508.50 642.60 L 502.60 642.60 L 486.50 652.00 L 485.10 652.00 L 485.10 653.70 L 485.40 653.70 L 486.50 655.50 L 502.60 665.00 L 508.50 665.00 L 524.90 655.50 Z" fill="#393842" fill-rule="nonzero" group-id="55,228,401" node-id="1353" stroke="none" target-height="22.400024" target-width="40.899994" target-x="485.1" target-y="642.6"></path></g></g></g><g node-id="2708"><g node-id="2881"><g node-id="3054"><path d="M 533.70 627.90 L 528.10 627.90 L 512.00 637.30 L 510.60 637.30 L 510.60 639.10 L 511.60 640.80 L 528.10 650.30 L 534.10 650.30 L 550.10 640.80 L 551.20 639.10 L 551.20 637.30 L 549.80 637.30 L 533.70 627.90 Z" fill="#393842" fill-rule="nonzero" group-id="56,229,402" node-id="1364" stroke="none" target-height="22.399963" target-width="40.600006" target-x="510.6" target-y="627.9"></path></g></g></g><g node-id="2709"><g node-id="2882"><g node-id="3055"><path d="M 559.30 613.20 L 556.40 612.30 L 553.30 613.20 L 537.20 622.60 L 535.80 622.60 L 535.80 624.40 L 537.20 626.10 L 553.30 635.60 L 559.30 635.60 L 575.40 626.10 L 576.80 624.40 L 576.80 622.20 L 575.00 622.20 L 559.30 613.20 Z" fill="#393842" fill-rule="nonzero" group-id="57,230,403" node-id="1375" stroke="none" target-height="23.299988" target-width="41" target-x="535.8" target-y="612.3"></path></g></g></g><g node-id="2710"><g node-id="2883"><g node-id="3056"><path d="M 600.90 611.40 L 602.00 609.70 L 602.00 607.50 L 600.60 607.50 L 584.50 598.50 L 581.60 597.60 L 578.50 598.50 L 562.80 607.90 L 561.40 607.90 L 561.40 609.70 L 562.40 611.40 L 578.90 620.90 L 584.80 620.90 L 600.90 611.40 Z" fill="#393842" fill-rule="nonzero" group-id="58,231,404" node-id="1386" stroke="none" target-height="23.300049" target-width="40.599976" target-x="561.4" target-y="597.6"></path></g></g></g><g node-id="2711"><g node-id="2884"><g node-id="3057"><path d="M 626.10 596.70 L 627.50 595.00 L 627.50 592.90 L 625.80 592.90 L 610.00 583.70 L 606.90 582.70 L 604.10 583.70 L 588.00 593.20 L 586.60 593.20 L 586.60 595.00 L 588.00 596.70 L 604.10 605.80 L 607.10 606.70 L 610.00 605.80 L 626.10 596.70 Z" fill="#393842" fill-rule="nonzero" group-id="59,232,405" node-id="1397" stroke="none" target-height="24" target-width="40.900024" target-x="586.6" target-y="582.7"></path></g></g></g><g node-id="2712"><g node-id="2885"><g node-id="3058"><path d="M 651.30 582.00 L 652.70 580.20 L 652.70 578.10 L 651.00 578.10 L 635.20 569.10 L 632.30 568.20 L 629.30 569.10 L 613.10 578.50 L 611.80 578.50 L 611.80 580.20 L 613.10 582.00 L 629.30 591.10 L 632.30 592.10 L 635.20 591.10 L 651.30 582.00 Z" fill="#393842" fill-rule="nonzero" group-id="60,233,406" node-id="1408" stroke="none" target-height="23.899963" target-width="40.900024" target-x="611.8" target-y="568.2"></path></g></g></g><g node-id="2713"><g node-id="2886"><g node-id="3059"><path d="M 676.90 567.00 L 677.90 565.60 L 677.90 563.50 L 676.50 563.50 L 660.40 554.30 L 657.60 553.70 L 654.50 554.30 L 638.70 563.50 L 637.30 563.50 L 637.30 565.60 L 638.40 567.00 L 654.80 576.40 L 657.70 577.40 L 660.80 576.40 L 676.90 567.00 Z" fill="#393842" fill-rule="nonzero" group-id="61,234,407" node-id="1419" stroke="none" target-height="23.700012" target-width="40.600037" target-x="637.3" target-y="553.7"></path></g></g></g><g node-id="2714"><g node-id="2887"><g node-id="3060"><path d="M 686.00 539.70 L 683.10 538.80 L 680.00 539.70 L 663.90 548.70 L 662.50 548.70 L 662.50 550.90 L 663.90 552.20 L 680.00 561.70 L 683.10 562.60 L 686.00 561.70 L 702.10 552.20 L 703.40 550.90 L 703.40 548.70 L 701.70 548.70 L 686.00 539.70 Z" fill="#393842" fill-rule="nonzero" group-id="62,235,408" node-id="1430" stroke="none" target-height="23.799988" target-width="40.900024" target-x="662.5" target-y="538.8"></path></g></g></g><g node-id="2715"><g node-id="2888"><g node-id="3061"><path d="M 417.90 665.70 L 415.10 664.60 L 412.30 665.70 L 396.20 675.10 L 394.80 675.10 L 394.80 676.90 L 395.80 678.60 L 412.30 688.10 L 418.20 688.10 L 434.30 678.60 L 435.40 676.90 L 435.40 674.70 L 434.00 674.70 L 417.90 665.70 Z" fill="#393842" fill-rule="nonzero" group-id="63,236,409" node-id="1441" stroke="none" target-height="23.5" target-width="40.600006" target-x="394.8" target-y="664.6"></path></g></g></g><g node-id="2716"><g node-id="2889"><g node-id="3062"><path d="M 459.50 663.90 L 460.90 662.20 L 460.90 660.00 L 459.20 660.00 L 443.40 651.00 L 440.50 650.10 L 437.50 651.00 L 421.40 660.40 L 420.00 660.40 L 420.00 662.20 L 421.40 663.90 L 437.50 673.00 L 440.60 674.00 L 443.40 673.40 L 459.50 663.90 Z" fill="#393842" fill-rule="nonzero" group-id="64,237,410" node-id="1452" stroke="none" target-height="23.900024" target-width="40.899994" target-x="420" target-y="650.1"></path></g></g></g><g node-id="2717"><g node-id="2890"><g node-id="3063"><path d="M 485.10 649.20 L 486.10 647.50 L 486.10 645.40 L 484.70 645.40 L 468.60 636.20 L 465.80 635.60 L 462.60 636.20 L 446.90 645.70 L 445.50 645.70 L 445.50 647.50 L 446.60 649.20 L 463.00 658.30 L 465.90 659.40 L 469.00 658.30 L 485.10 649.20 Z" fill="#393842" fill-rule="nonzero" group-id="65,238,411" node-id="1463" stroke="none" target-height="23.800049" target-width="40.600006" target-x="445.5" target-y="635.6"></path></g></g></g><g node-id="2718"><g node-id="2891"><g node-id="3064"><path d="M 494.10 621.60 L 491.10 620.50 L 488.20 621.60 L 472.10 630.60 L 470.70 630.60 L 470.70 632.70 L 472.10 634.50 L 488.20 643.60 L 491.30 644.50 L 494.10 643.60 L 510.30 634.50 L 511.60 632.70 L 511.60 630.60 L 509.90 630.60 L 494.10 621.60 Z" fill="#393842" fill-rule="nonzero" group-id="66,239,412" node-id="1474" stroke="none" target-height="24" target-width="40.899994" target-x="470.7" target-y="620.5"></path></g></g></g><g node-id="2719"><g node-id="2892"><g node-id="3065"><path d="M 535.80 619.50 L 536.90 618.10 L 536.90 616.00 L 535.40 616.00 L 519.40 606.90 L 516.50 606.00 L 513.40 606.90 L 497.30 616.00 L 496.30 616.00 L 496.30 618.10 L 497.30 619.50 L 513.40 628.90 L 516.50 629.90 L 519.40 628.90 L 535.80 619.50 Z" fill="#393842" fill-rule="nonzero" group-id="67,240,413" node-id="1485" stroke="none" target-height="23.900024" target-width="40.600037" target-x="496.3" target-y="606"></path></g></g></g><g node-id="2720"><g node-id="2893"><g node-id="3066"><path d="M 561.00 604.70 L 562.10 603.00 L 562.10 601.20 L 560.60 601.20 L 544.60 592.20 L 541.80 591.10 L 538.90 592.20 L 522.90 601.20 L 521.40 601.20 L 521.40 603.40 L 522.50 604.70 L 538.90 614.20 L 542.00 615.10 L 544.90 614.20 L 561.00 604.70 Z" fill="#393842" fill-rule="nonzero" group-id="68,241,414" node-id="1496" stroke="none" target-height="24" target-width="40.69995" target-x="521.4" target-y="591.1"></path></g></g></g><g node-id="2721"><g node-id="2894"><g node-id="3067"><path d="M 570.10 577.50 L 567.20 576.60 L 564.10 577.50 L 548.10 586.60 L 546.60 586.60 L 546.60 588.70 L 548.10 590.10 L 564.10 599.50 L 567.20 600.50 L 570.10 599.50 L 586.20 590.10 L 587.60 588.30 L 587.60 586.60 L 585.90 586.60 L 570.10 577.50 Z" fill="#393842" fill-rule="nonzero" group-id="69,242,415" node-id="1507" stroke="none" target-height="23.900024" target-width="41" target-x="546.6" target-y="576.6"></path></g></g></g><g node-id="2722"><g node-id="2895"><g node-id="3068"><path d="M 611.80 575.40 L 612.80 573.60 L 612.80 571.90 L 611.40 571.90 L 595.30 562.70 L 592.40 561.90 L 589.40 562.70 L 573.60 571.90 L 572.20 571.90 L 572.20 574.00 L 573.30 575.40 L 589.70 584.80 L 592.60 585.90 L 595.60 584.80 L 611.80 575.40 Z" fill="#393842" fill-rule="nonzero" group-id="70,243,416" node-id="1518" stroke="none" target-height="24" target-width="40.599976" target-x="572.2" target-y="561.9"></path></g></g></g><g node-id="2723"><g node-id="2896"><g node-id="3069"><path d="M 638.40 558.90 L 638.40 557.20 L 636.60 557.20 L 620.90 548.00 L 617.80 547.00 L 614.90 548.00 L 598.80 557.20 L 597.40 557.20 L 597.40 559.20 L 598.80 560.70 L 614.90 570.10 L 618.00 571.00 L 620.90 570.10 L 637.00 560.70 L 638.40 558.90 Z" fill="#393842" fill-rule="nonzero" group-id="71,244,417" node-id="1529" stroke="none" target-height="24" target-width="41" target-x="597.4" target-y="547"></path></g></g></g><g node-id="2724"><g node-id="2897"><g node-id="3070"><path d="M 646.10 533.40 L 643.20 532.50 L 640.10 533.40 L 624.00 542.50 L 622.60 542.50 L 622.60 544.60 L 623.00 544.60 L 624.00 546.00 L 640.10 555.40 L 643.20 556.40 L 646.10 555.40 L 662.10 546.00 L 663.60 544.20 L 663.60 542.50 L 661.80 542.50 L 646.10 533.40 Z" fill="#393842" fill-rule="nonzero" group-id="72,245,418" node-id="1540" stroke="none" target-height="23.900024" target-width="41" target-x="622.6" target-y="532.5"></path></g></g></g><g node-id="2725"><g node-id="2898"><g node-id="3071"><path d="M 649.20 531.20 L 665.70 540.70 L 668.70 541.60 L 671.60 540.70 L 687.70 531.20 L 688.80 529.50 L 688.80 527.70 L 687.40 527.70 L 671.30 518.30 L 665.70 518.30 L 649.60 527.70 L 648.10 527.70 L 648.10 529.90 L 649.20 531.20 Z" fill="#393842" fill-rule="nonzero" group-id="73,246,419" node-id="1551" stroke="none" target-height="23.299988" target-width="40.700012" target-x="648.1" target-y="518.3"></path></g></g></g><g node-id="2726"><g node-id="2899"><g node-id="3072"><path d="M 700.60 501.50 L 697.80 500.60 L 694.70 501.50 L 675.10 513.10 L 673.40 513.10 L 673.40 515.20 L 674.80 516.60 L 690.90 526.00 L 693.90 526.90 L 696.80 526.00 L 716.80 514.50 L 718.10 512.40 L 718.10 510.60 L 716.40 510.60 L 700.60 501.50 Z" fill="#393842" fill-rule="nonzero" group-id="74,247,420" node-id="1562" stroke="none" target-height="26.300018" target-width="44.69995" target-x="673.4" target-y="500.6"></path></g></g></g><g node-id="2727"><g node-id="2900"><g node-id="3073"><path d="M 717.50 632.70 L 718.90 631.00 L 718.90 629.20 L 717.50 629.20 L 701.40 620.20 L 696.80 619.50 L 679.30 629.20 L 677.90 629.20 L 677.90 630.00 L 549.50 704.90 L 548.10 704.90 L 548.10 707.30 L 548.40 707.30 L 548.80 708.00 L 565.60 717.80 L 568.70 718.50 L 571.50 717.80 L 717.50 632.70 Z" fill="#393842" fill-rule="nonzero" group-id="75,248,421" node-id="1573" stroke="none" target-height="99" target-width="170.80005" target-x="548.1" target-y="619.5"></path></g></g></g><g node-id="2728"><g node-id="2901"><g node-id="3074"><path d="M 365.40 685.60 L 368.40 686.50 L 371.30 685.60 L 387.40 676.20 L 388.40 674.40 L 388.40 672.70 L 387.40 673.00 L 387.40 672.70 L 382.90 670.20 L 376.90 670.20 L 362.20 679.00 L 359.80 679.70 L 359.80 681.40 L 360.80 683.20 L 365.40 685.60 Z" fill="#393842" fill-rule="nonzero" group-id="76,249,422" node-id="1584" stroke="none" target-height="16.299988" target-width="28.600006" target-x="359.8" target-y="670.2"></path></g></g></g><g node-id="2729"><g node-id="2902"><g node-id="3075"><path d="M 384.90 665.00 L 384.90 666.70 L 386.40 668.50 L 390.60 670.90 L 393.60 671.80 L 396.50 670.90 L 412.60 661.50 L 414.00 659.70 L 414.00 658.00 L 413.00 658.30 L 408.40 655.50 L 405.50 654.60 L 402.40 655.50 L 387.40 664.20 L 384.90 665.00 Z" fill="#393842" fill-rule="nonzero" group-id="77,250,423" node-id="1595" stroke="none" target-height="17.200012" target-width="29.100006" target-x="384.9" target-y="654.6"></path></g></g></g><g node-id="2730"><g node-id="2903"><g node-id="3076"><path d="M 438.20 646.80 L 439.20 645.00 L 439.20 643.20 L 438.20 643.60 L 438.20 643.20 L 433.60 640.80 L 430.70 639.90 L 427.70 640.80 L 413.00 649.60 L 410.50 650.30 L 410.50 652.00 L 411.60 653.70 L 416.10 656.20 L 419.00 657.20 L 422.10 656.20 L 438.20 646.80 Z" fill="#393842" fill-rule="nonzero" group-id="78,251,424" node-id="1606" stroke="none" target-height="17.299988" target-width="28.700012" target-x="410.5" target-y="639.9"></path></g></g></g><g node-id="2731"><g node-id="2904"><g node-id="3077"><path d="M 463.40 632.10 L 464.80 630.30 L 464.80 628.60 L 463.70 628.90 L 458.80 626.10 L 456.00 625.10 L 453.20 626.10 L 438.20 634.90 L 435.70 635.20 L 435.70 637.30 L 437.10 639.10 L 441.30 641.50 L 444.40 642.40 L 447.30 641.50 L 463.40 632.10 Z" fill="#393842" fill-rule="nonzero" group-id="79,252,425" node-id="1617" stroke="none" target-height="17.300049" target-width="29.099976" target-x="435.7" target-y="625.1"></path></g></g></g><g node-id="2732"><g node-id="2905"><g node-id="3078"><path d="M 466.50 626.80 L 472.40 626.80 L 488.60 617.40 L 490.00 615.60 L 490.00 613.80 L 488.90 614.20 L 484.40 611.40 L 481.50 610.50 L 478.40 611.40 L 463.40 620.20 L 460.90 620.50 L 460.90 622.60 L 462.30 624.40 L 466.50 626.80 Z" fill="#393842" fill-rule="nonzero" group-id="80,253,426" node-id="1628" stroke="none" target-height="16.299988" target-width="29.100006" target-x="460.9" target-y="610.5"></path></g></g></g><g node-id="2733"><g node-id="2906"><g node-id="3079"><path d="M 486.50 607.90 L 487.50 609.30 L 492.10 612.10 L 498.00 612.10 L 514.10 602.70 L 515.10 600.90 L 515.10 599.20 L 514.10 599.50 L 514.10 599.20 L 509.60 596.70 L 506.80 596.00 L 503.60 596.70 L 488.90 605.50 L 486.50 605.80 L 486.50 607.90 Z" fill="#393842" fill-rule="nonzero" group-id="81,254,427" node-id="1639" stroke="none" target-height="16.099976" target-width="28.599976" target-x="486.5" target-y="596"></path></g></g></g><g node-id="2734"><g node-id="2907"><g node-id="3080"><path d="M 539.30 588.00 L 540.70 586.20 L 540.70 584.50 L 539.30 584.50 L 535.10 582.00 L 532.00 581.00 L 529.10 582.00 L 514.10 590.80 L 511.60 591.10 L 511.60 593.20 L 513.10 594.60 L 517.30 597.40 L 523.20 597.40 L 539.30 588.00 Z" fill="#393842" fill-rule="nonzero" group-id="82,255,428" node-id="1650" stroke="none" target-height="16.400024" target-width="29.100006" target-x="511.6" target-y="581"></path></g></g></g><g node-id="2735"><g node-id="2908"><g node-id="3081"><path d="M 564.90 573.20 L 565.90 571.50 L 565.90 569.70 L 564.90 569.70 L 560.30 567.30 L 557.40 566.40 L 554.40 567.30 L 539.30 576.10 L 537.20 576.40 L 537.20 578.50 L 538.30 579.90 L 542.80 582.70 L 548.40 582.70 L 564.90 573.20 Z" fill="#393842" fill-rule="nonzero" group-id="83,256,429" node-id="1661" stroke="none" target-height="16.299988" target-width="28.700012" target-x="537.2" target-y="566.4"></path></g></g></g><g node-id="2736"><g node-id="2909"><g node-id="3082"><path d="M 590.10 558.60 L 591.10 556.80 L 591.10 555.10 L 590.10 555.10 L 585.50 552.60 L 582.70 551.50 L 579.90 552.60 L 564.90 561.40 L 562.40 561.70 L 562.40 563.80 L 563.50 565.20 L 568.00 568.00 L 574.00 568.00 L 590.10 558.60 Z" fill="#393842" fill-rule="nonzero" group-id="84,257,430" node-id="1672" stroke="none" target-height="16.5" target-width="28.699951" target-x="562.4" target-y="551.5"></path></g></g></g><g node-id="2737"><g node-id="2910"><g node-id="3083"><path d="M 611.10 537.90 L 608.20 537.00 L 605.10 537.90 L 590.10 546.30 L 587.60 547.00 L 587.60 549.10 L 589.00 550.50 L 593.20 553.00 L 596.30 554.00 L 599.10 553.00 L 615.30 543.90 L 616.60 542.10 L 616.60 540.40 L 615.30 540.40 L 611.10 537.90 Z" fill="#393842" fill-rule="nonzero" group-id="85,258,431" node-id="1683" stroke="none" target-height="17" target-width="29" target-x="587.6" target-y="537"></path></g></g></g><g node-id="2738"><g node-id="2911"><g node-id="3084"><path d="M 618.80 538.30 L 621.60 539.30 L 624.70 538.30 L 640.80 529.20 L 641.90 527.40 L 641.90 525.30 L 640.80 525.70 L 636.30 523.20 L 633.50 522.50 L 630.30 523.20 L 615.60 531.60 L 613.10 532.30 L 613.10 534.40 L 614.20 535.80 L 618.80 538.30 Z" fill="#393842" fill-rule="nonzero" group-id="86,259,432" node-id="1694" stroke="none" target-height="16.799988" target-width="28.800049" target-x="613.1" target-y="522.5"></path></g></g></g><g node-id="2739"><g node-id="2912"><g node-id="3085"><path d="M 666.00 514.10 L 667.40 512.70 L 667.40 510.60 L 666.00 511.00 L 661.80 508.50 L 658.70 507.50 L 655.90 508.20 L 640.80 516.90 L 638.40 517.60 L 638.40 519.40 L 639.80 521.10 L 644.00 523.60 L 647.00 524.40 L 649.90 523.60 L 666.00 514.10 Z" fill="#393842" fill-rule="nonzero" group-id="87,260,433" node-id="1705" stroke="none" target-height="16.900024" target-width="29" target-x="638.4" target-y="507.5"></path></g></g></g><g node-id="2740"><g node-id="2913"><g node-id="3086"><path d="M 663.90 504.70 L 665.00 506.40 L 669.50 508.90 L 672.30 509.90 L 675.10 508.90 L 691.60 499.40 L 692.60 498.00 L 692.60 495.90 L 691.60 496.20 L 687.00 493.50 L 681.10 493.50 L 666.00 502.20 L 663.90 502.90 L 663.90 504.70 Z" fill="#393842" fill-rule="nonzero" group-id="88,261,434" node-id="1716" stroke="none" target-height="16.399994" target-width="28.699951" target-x="663.9" target-y="493.5"></path></g></g></g><g node-id="2741"><g node-id="2914"><g node-id="3087"><path d="M 424.90 712.90 L 424.90 710.80 L 423.50 711.20 L 407.40 701.70 L 404.50 700.80 L 401.40 701.70 L 371.30 719.20 L 369.90 719.20 L 369.90 721.30 L 370.90 722.70 L 387.40 732.20 L 390.20 733.20 L 393.00 732.20 L 423.50 714.30 L 424.90 712.90 Z" fill="#393842" fill-rule="nonzero" group-id="89,262,435" node-id="1727" stroke="none" target-height="32.400024" target-width="55" target-x="369.9" target-y="700.8"></path></g></g></g><g node-id="2742"><g node-id="2915"><g node-id="3088"><path d="M 445.50 709.10 L 442.70 708.00 L 439.90 709.10 L 397.60 733.60 L 395.40 734.20 L 395.40 736.00 L 396.50 737.70 L 413.00 746.90 L 416.00 747.70 L 418.90 746.90 L 462.00 722.00 L 463.00 720.20 L 463.00 718.20 L 462.00 718.50 L 445.50 709.10 Z" fill="#393842" fill-rule="nonzero" group-id="90,263,436" node-id="1738" stroke="none" target-height="39.700012" target-width="67.600006" target-x="395.4" target-y="708"></path></g></g></g><g node-id="2743"><g node-id="2916"><g node-id="3089"><path d="M 438.90 761.90 L 441.70 762.90 L 444.80 761.90 L 487.90 736.70 L 488.90 735.00 L 488.90 733.20 L 487.90 733.60 L 471.40 724.10 L 468.60 723.40 L 465.50 724.10 L 423.50 748.60 L 421.40 748.90 L 421.40 750.70 L 422.40 752.50 L 438.90 761.90 Z" fill="#393842" fill-rule="nonzero" group-id="91,264,437" node-id="1749" stroke="none" target-height="39.5" target-width="67.5" target-x="421.4" target-y="723.4"></path></g></g></g><g node-id="2744"><g node-id="2917"><g node-id="3090"><path d="M 726.20 516.20 L 720.30 516.20 L 689.80 534.10 L 688.10 534.40 L 688.10 536.20 L 689.50 537.90 L 705.60 547.00 L 708.60 547.90 L 711.50 547.00 L 742.60 529.20 L 743.70 527.40 L 743.70 525.70 L 742.60 525.70 L 726.20 516.20 Z" fill="#393842" fill-rule="nonzero" group-id="92,265,438" node-id="1760" stroke="none" target-height="31.700012" target-width="55.600037" target-x="688.1" target-y="516.2"></path></g></g></g><g node-id="2745"><g node-id="2918"><g node-id="3091"><path d="M 752.10 531.20 L 749.00 530.20 L 746.10 531.20 L 702.40 556.50 L 701.00 558.20 L 702.40 560.00 L 718.50 569.40 L 721.60 570.30 L 724.50 569.40 L 768.20 543.90 L 769.60 542.10 L 768.20 540.40 L 752.10 531.20 Z" fill="#393842" fill-rule="nonzero" group-id="93,266,439" node-id="1771" stroke="none" target-height="40.099976" target-width="68.599976" target-x="701" target-y="530.2"></path></g></g></g><g node-id="2746"><g node-id="2919"><g node-id="3092"><path d="M 781.90 581.70 L 782.90 580.20 L 782.90 578.10 L 781.90 578.50 L 777.30 575.70 L 771.40 575.70 L 756.60 584.50 L 754.20 585.20 L 754.20 586.90 L 755.30 588.70 L 759.80 591.10 L 762.70 592.10 L 765.80 591.10 L 781.90 581.70 Z" fill="#393842" fill-rule="nonzero" group-id="94,267,440" node-id="1782" stroke="none" target-height="16.399963" target-width="28.700012" target-x="754.2" target-y="575.7"></path></g></g></g><g node-id="2747"><g node-id="2920"><g node-id="3093"><path d="M 794.80 585.20 L 793.80 585.50 L 793.80 585.20 L 789.20 582.70 L 786.30 581.80 L 783.30 582.70 L 768.20 591.50 L 766.10 591.80 L 766.10 593.90 L 767.10 595.70 L 771.70 598.10 L 775.00 599.00 L 777.30 598.10 L 793.80 588.70 L 794.80 586.90 L 794.80 585.20 Z" fill="#393842" fill-rule="nonzero" group-id="95,268,441" node-id="1793" stroke="none" target-height="17.200012" target-width="28.700012" target-x="766.1" target-y="581.8"></path></g></g></g><g node-id="2748"><g node-id="2921"><g node-id="3094"><path d="M 497.00 709.40 L 493.90 708.40 L 491.00 709.40 L 474.90 718.90 L 473.50 720.60 L 474.90 722.00 L 491.00 731.50 L 494.10 732.30 L 497.00 731.50 L 513.10 722.00 L 514.40 720.60 L 513.10 718.90 L 497.00 709.40 Z" fill="#393842" fill-rule="nonzero" group-id="96,269,442" node-id="1804" stroke="none" target-height="23.899963" target-width="40.900024" target-x="473.5" target-y="708.4"></path></g></g></g><g node-id="2749"><g node-id="2922"><g node-id="3095"><path d="M 335.90 702.80 L 341.90 702.80 L 362.20 690.90 L 363.30 689.10 L 363.30 687.40 L 361.90 687.70 L 357.70 684.90 L 351.70 684.90 L 333.20 695.70 L 330.40 696.50 L 330.40 698.60 L 331.80 700.00 L 335.90 702.80 Z" fill="#393842" fill-rule="nonzero" group-id="97,270,443" node-id="1815" stroke="none" target-height="17.899963" target-width="32.899994" target-x="330.4" target-y="684.9"></path></g></g></g><g node-id="2750"><g node-id="2923"><g node-id="3096"><path d="M 383.60 706.30 L 384.90 704.50 L 383.60 702.80 L 367.40 693.30 L 364.40 692.30 L 361.50 693.30 L 345.40 702.80 L 344.00 704.50 L 345.40 706.30 L 361.50 715.70 L 367.40 715.70 L 383.60 706.30 Z" fill="#57565e" fill-rule="nonzero" group-id="98,271,444" node-id="1826" stroke="none" target-height="23.400024" target-width="40.899994" target-x="344" target-y="692.3"></path></g></g></g><g node-id="2751"><g node-id="2924"><g node-id="3097"><path d="M 409.10 691.60 L 410.30 689.80 L 409.10 688.10 L 392.60 678.60 L 389.80 677.70 L 386.70 678.60 L 370.60 688.10 L 369.20 689.80 L 370.60 691.60 L 387.10 700.70 L 389.90 701.70 L 392.60 700.70 L 409.10 691.60 Z" fill="#57565e" fill-rule="nonzero" group-id="99,272,445" node-id="1837" stroke="none" target-height="24" target-width="41.099976" target-x="369.2" target-y="677.7"></path></g></g></g><g node-id="2752"><g node-id="2925"><g node-id="3098"><path d="M 434.30 676.90 L 435.70 675.10 L 434.30 673.40 L 417.90 663.90 L 415.10 662.90 L 412.30 663.90 L 395.80 673.40 L 394.60 675.10 L 395.80 676.90 L 412.30 686.00 L 415.30 686.80 L 418.20 686.00 L 434.30 676.90 Z" fill="#57565e" fill-rule="nonzero" group-id="100,273,446" node-id="1848" stroke="none" target-height="23.899963" target-width="41.100006" target-x="394.6" target-y="662.9"></path></g></g></g><g node-id="2753"><g node-id="2926"><g node-id="3099"><path d="M 460.90 660.40 L 459.50 658.70 L 443.40 649.20 L 440.50 648.30 L 437.50 649.20 L 421.40 658.70 L 420.00 660.40 L 421.40 662.20 L 437.50 671.20 L 440.50 672.30 L 443.40 671.20 L 459.50 662.20 L 460.90 660.40 Z" fill="#57565e" fill-rule="nonzero" group-id="101,274,447" node-id="1859" stroke="none" target-height="24" target-width="40.899994" target-x="420" target-y="648.3"></path></g></g></g><g node-id="2754"><g node-id="2927"><g node-id="3100"><path d="M 486.10 645.70 L 485.10 644.00 L 468.60 634.50 L 465.80 633.80 L 462.60 634.50 L 446.60 644.00 L 445.50 645.70 L 446.60 647.10 L 463.00 656.60 L 465.90 657.60 L 469.00 656.60 L 485.10 647.10 L 486.10 645.70 Z" fill="#57565e" fill-rule="nonzero" group-id="102,275,448" node-id="1870" stroke="none" target-height="23.799988" target-width="40.600006" target-x="445.5" target-y="633.8"></path></g></g></g><g node-id="2755"><g node-id="2928"><g node-id="3101"><path d="M 494.10 619.80 L 491.10 618.80 L 488.20 619.80 L 472.10 629.20 L 470.70 631.00 L 472.10 632.40 L 488.20 641.90 L 491.30 642.70 L 494.10 641.90 L 510.30 632.40 L 511.60 631.00 L 510.30 629.20 L 494.10 619.80 Z" fill="#57565e" fill-rule="nonzero" group-id="103,276,449" node-id="1881" stroke="none" target-height="23.900024" target-width="40.899994" target-x="470.7" target-y="618.8"></path></g></g></g><g node-id="2756"><g node-id="2929"><g node-id="3102"><path d="M 536.90 616.30 L 535.40 614.60 L 519.40 605.10 L 516.50 604.20 L 513.40 605.10 L 497.30 614.60 L 495.90 616.30 L 497.30 617.70 L 513.40 627.20 L 516.50 628.20 L 519.40 627.20 L 535.80 617.70 L 536.90 616.30 Z" fill="#57565e" fill-rule="nonzero" group-id="104,277,450" node-id="1892" stroke="none" target-height="24" target-width="41.00003" target-x="495.9" target-y="604.2"></path></g></g></g><g node-id="2757"><g node-id="2930"><g node-id="3103"><path d="M 562.40 601.20 L 561.00 599.50 L 544.60 590.40 L 541.80 589.30 L 538.90 590.40 L 522.50 599.50 L 521.10 601.50 L 522.50 603.00 L 538.90 612.50 L 542.00 613.30 L 544.90 612.50 L 561.00 603.00 L 562.40 601.20 Z" fill="#57565e" fill-rule="nonzero" group-id="105,278,451" node-id="1903" stroke="none" target-height="24" target-width="41.30005" target-x="521.1" target-y="589.3"></path></g></g></g><g node-id="2758"><g node-id="2931"><g node-id="3104"><path d="M 586.20 588.30 L 587.60 586.50 L 586.20 584.80 L 570.10 575.70 L 567.20 574.80 L 564.10 575.70 L 548.10 584.80 L 546.60 586.50 L 548.10 588.30 L 564.10 597.70 L 567.20 598.60 L 570.10 597.70 L 586.20 588.30 Z" fill="#57565e" fill-rule="nonzero" group-id="106,279,452" node-id="1914" stroke="none" target-height="23.799988" target-width="41" target-x="546.6" target-y="574.8"></path></g></g></g><g node-id="2759"><g node-id="2932"><g node-id="3105"><path d="M 611.80 573.60 L 613.00 571.90 L 611.80 570.10 L 595.30 561.00 L 592.40 560.10 L 589.40 561.00 L 573.30 570.10 L 572.00 571.60 L 573.30 573.60 L 589.70 583.10 L 592.60 584.10 L 595.60 583.10 L 611.80 573.60 Z" fill="#57565e" fill-rule="nonzero" group-id="107,280,453" node-id="1925" stroke="none" target-height="24" target-width="41" target-x="572" target-y="560.1"></path></g></g></g><g node-id="2760"><g node-id="2933"><g node-id="3106"><path d="M 637.00 558.90 L 638.30 557.10 L 637.00 555.40 L 620.90 546.00 L 614.90 546.00 L 598.80 555.40 L 597.40 557.10 L 598.80 558.90 L 614.90 568.40 L 618.00 569.20 L 620.90 568.40 L 637.00 558.90 Z" fill="#57565e" fill-rule="nonzero" group-id="108,281,454" node-id="1936" stroke="none" target-height="23.200012" target-width="40.899963" target-x="597.4" target-y="546"></path></g></g></g><g node-id="2761"><g node-id="2934"><g node-id="3107"><path d="M 474.20 683.20 L 475.40 681.40 L 474.20 679.70 L 457.80 670.20 L 451.80 670.20 L 435.70 679.70 L 434.50 681.40 L 435.70 683.20 L 452.20 692.60 L 458.10 692.60 L 474.20 683.20 Z" fill="#57565e" fill-rule="nonzero" group-id="109,282,455" node-id="1947" stroke="none" target-height="22.399963" target-width="40.899994" target-x="434.5" target-y="670.2"></path></g></g></g><g node-id="2762"><g node-id="2935"><g node-id="3108"><path d="M 499.40 668.50 L 500.80 666.70 L 499.40 665.00 L 483.30 655.50 L 477.40 655.50 L 461.30 665.00 L 459.90 666.70 L 461.30 668.50 L 477.40 677.90 L 483.30 677.90 L 499.40 668.50 Z" fill="#57565e" fill-rule="nonzero" group-id="110,283,456" node-id="1958" stroke="none" target-height="22.400024" target-width="40.899994" target-x="459.9" target-y="655.5"></path></g></g></g><g node-id="2763"><g node-id="2936"><g node-id="3109"><path d="M 524.90 653.70 L 526.10 652.00 L 524.60 650.30 L 508.50 640.80 L 505.60 639.90 L 502.60 640.80 L 486.50 650.30 L 485.00 652.00 L 486.50 653.70 L 502.60 663.20 L 508.50 663.20 L 524.90 653.70 Z" fill="#57565e" fill-rule="nonzero" group-id="111,284,457" node-id="1969" stroke="none" target-height="23.299988" target-width="41.099976" target-x="485" target-y="639.9"></path></g></g></g><g node-id="2764"><g node-id="2937"><g node-id="3110"><path d="M 550.10 639.10 L 551.50 637.30 L 550.10 635.60 L 533.70 626.10 L 530.90 625.10 L 528.10 626.10 L 511.60 635.60 L 510.40 637.30 L 511.60 639.10 L 528.10 648.20 L 531.00 649.10 L 534.10 648.50 L 550.10 639.10 Z" fill="#57565e" fill-rule="nonzero" group-id="112,285,458" node-id="1980" stroke="none" target-height="24" target-width="41.100006" target-x="510.4" target-y="625.1"></path></g></g></g><g node-id="2765"><g node-id="2938"><g node-id="3111"><path d="M 575.40 624.40 L 576.80 622.60 L 575.40 620.90 L 559.30 611.40 L 556.40 610.50 L 553.30 611.40 L 537.20 620.90 L 535.80 622.60 L 537.20 624.40 L 553.30 633.50 L 556.40 634.30 L 559.30 633.50 L 575.40 624.40 Z" fill="#57565e" fill-rule="nonzero" group-id="113,286,459" node-id="1991" stroke="none" target-height="23.799988" target-width="41" target-x="535.8" target-y="610.5"></path></g></g></g><g node-id="2766"><g node-id="2939"><g node-id="3112"><path d="M 600.90 609.70 L 602.30 607.70 L 600.90 606.20 L 584.50 596.70 L 581.60 595.80 L 578.50 596.70 L 562.40 606.20 L 561.00 607.90 L 562.40 609.70 L 578.90 618.70 L 581.70 619.80 L 584.80 618.70 L 600.90 609.70 Z" fill="#57565e" fill-rule="nonzero" group-id="114,287,460" node-id="2002" stroke="none" target-height="24" target-width="41.299988" target-x="561" target-y="595.8"></path></g></g></g><g node-id="2767"><g node-id="2940"><g node-id="3113"><path d="M 627.50 593.20 L 626.10 591.50 L 610.00 582.00 L 606.90 581.00 L 604.10 582.00 L 588.00 591.50 L 586.60 593.20 L 588.00 594.60 L 604.10 604.00 L 607.10 604.90 L 610.00 604.00 L 626.10 594.60 L 627.50 593.20 Z" fill="#57565e" fill-rule="nonzero" group-id="115,288,461" node-id="2013" stroke="none" target-height="23.900024" target-width="40.900024" target-x="586.6" target-y="581"></path></g></g></g><g node-id="2768"><g node-id="2941"><g node-id="3114"><path d="M 652.70 578.50 L 651.30 576.70 L 635.20 567.30 L 632.30 566.40 L 629.30 567.30 L 613.10 576.70 L 611.80 578.50 L 613.10 579.90 L 629.30 589.40 L 632.30 590.40 L 635.20 589.40 L 651.30 579.90 L 652.70 578.50 Z" fill="#57565e" fill-rule="nonzero" group-id="116,289,462" node-id="2024" stroke="none" target-height="24" target-width="40.900024" target-x="611.8" target-y="566.4"></path></g></g></g><g node-id="2769"><g node-id="2942"><g node-id="3115"><path d="M 677.90 563.80 L 676.90 562.10 L 660.40 552.60 L 657.60 551.90 L 654.50 552.60 L 638.40 562.10 L 637.30 563.80 L 638.40 565.20 L 654.80 574.60 L 657.70 575.70 L 660.80 574.60 L 676.90 565.20 L 677.90 563.80 Z" fill="#57565e" fill-rule="nonzero" group-id="117,290,463" node-id="2035" stroke="none" target-height="23.799988" target-width="40.600037" target-x="637.3" target-y="551.9"></path></g></g></g><g node-id="2770"><g node-id="2943"><g node-id="3116"><path d="M 686.00 537.90 L 682.90 536.90 L 680.00 537.90 L 663.90 547.40 L 662.50 549.10 L 663.90 550.50 L 680.00 560.00 L 683.10 560.80 L 686.00 560.00 L 702.10 550.50 L 703.40 549.10 L 702.10 547.40 L 686.00 537.90 Z" fill="#57565e" fill-rule="nonzero" group-id="118,291,464" node-id="2046" stroke="none" target-height="23.899963" target-width="40.900024" target-x="662.5" target-y="536.9"></path></g></g></g><g node-id="2771"><g node-id="2944"><g node-id="3117"><path d="M 640.10 531.20 L 624.00 540.70 L 622.60 542.50 L 624.00 544.20 L 640.10 553.70 L 643.20 554.70 L 646.10 553.70 L 662.10 544.20 L 663.50 542.50 L 662.10 540.70 L 646.10 531.20 L 640.10 531.20 Z" fill="#57565e" fill-rule="nonzero" group-id="119,292,465" node-id="2057" stroke="none" target-height="23.5" target-width="40.900024" target-x="622.6" target-y="531.2"></path></g></g></g><g node-id="2772"><g node-id="2945"><g node-id="3118"><path d="M 687.70 529.50 L 688.90 527.70 L 687.70 526.00 L 671.30 516.60 L 665.30 516.60 L 649.20 526.00 L 648.00 527.70 L 649.20 529.50 L 665.70 539.00 L 671.60 539.00 L 687.70 529.50 Z" fill="#57565e" fill-rule="nonzero" group-id="120,293,466" node-id="2068" stroke="none" target-height="22.400024" target-width="40.900024" target-x="648" target-y="516.6"></path></g></g></g><g node-id="2773"><g node-id="2946"><g node-id="3119"><path d="M 486.50 765.40 L 487.70 763.70 L 486.50 761.90 L 470.00 752.50 L 464.10 752.50 L 448.00 761.90 L 446.60 763.70 L 448.00 765.40 L 464.40 774.90 L 467.20 775.90 L 470.00 774.90 L 486.50 765.40 Z" fill="#57565e" fill-rule="nonzero" group-id="121,294,467" node-id="2079" stroke="none" target-height="23.400024" target-width="41.100006" target-x="446.6" target-y="752.5"></path></g></g></g><g node-id="2774"><g node-id="2947"><g node-id="3120"><path d="M 511.60 750.70 L 513.00 748.90 L 511.60 747.20 L 495.20 737.70 L 489.60 737.70 L 473.20 747.20 L 471.90 748.90 L 473.20 750.70 L 489.60 760.20 L 492.70 761.00 L 495.60 760.20 L 511.60 750.70 Z" fill="#57565e" fill-rule="nonzero" group-id="122,295,468" node-id="2090" stroke="none" target-height="23.299988" target-width="41.100006" target-x="471.9" target-y="737.7"></path></g></g></g><g node-id="2775"><g node-id="2948"><g node-id="3121"><path d="M 536.90 736.00 L 538.20 734.20 L 536.90 732.50 L 520.80 723.10 L 514.80 723.10 L 498.70 732.50 L 497.30 734.20 L 498.70 736.00 L 514.80 745.50 L 520.80 745.50 L 536.90 736.00 Z" fill="#57565e" fill-rule="nonzero" group-id="123,296,469" node-id="2101" stroke="none" target-height="22.400024" target-width="40.900024" target-x="497.3" target-y="723.1"></path></g></g></g><g node-id="2776"><g node-id="2949"><g node-id="3122"><path d="M 562.40 721.30 L 563.60 719.50 L 562.40 717.80 L 546.00 708.40 L 540.00 708.40 L 523.90 717.80 L 522.70 719.50 L 523.90 721.30 L 540.40 730.70 L 546.30 730.70 L 562.40 721.30 Z" fill="#57565e" fill-rule="nonzero" group-id="124,297,470" node-id="2112" stroke="none" target-height="22.299988" target-width="40.899963" target-x="522.7" target-y="708.4"></path></g></g></g><g node-id="2777"><g node-id="2950"><g node-id="3123"><path d="M 448.60 697.90 L 450.00 696.10 L 448.60 694.40 L 432.60 684.90 L 426.60 684.90 L 410.50 694.40 L 409.10 696.10 L 410.50 697.90 L 426.60 707.30 L 432.60 707.30 L 448.60 697.90 Z" fill="#57565e" fill-rule="nonzero" group-id="125,298,471" node-id="2123" stroke="none" target-height="22.399963" target-width="40.899994" target-x="409.1" target-y="684.9"></path></g></g></g><g node-id="2778"><g node-id="2951"><g node-id="3124"><path d="M 694.70 499.70 L 674.80 511.30 L 673.40 513.00 L 674.80 514.80 L 690.90 524.20 L 696.80 524.20 L 716.80 512.40 L 718.10 511.00 L 716.80 509.20 L 700.60 499.70 L 697.80 498.90 L 694.70 499.70 Z" fill="#57565e" fill-rule="nonzero" group-id="126,299,472" node-id="2134" stroke="none" target-height="25.300018" target-width="44.69995" target-x="673.4" target-y="498.9"></path></g></g></g><g node-id="2779"><g node-id="2952"><g node-id="3125"><path d="M 717.50 631.00 L 718.90 629.20 L 717.50 627.50 L 701.40 618.10 L 695.40 618.10 L 549.50 703.10 L 548.00 704.80 L 549.50 706.60 L 565.60 716.00 L 571.50 716.00 L 717.50 631.00 Z" fill="#57565e" fill-rule="nonzero" group-id="127,300,473" node-id="2145" stroke="none" target-height="97.900024" target-width="170.90002" target-x="548" target-y="618.1"></path></g></g></g><g node-id="2780"><g node-id="2953"><g node-id="3126"><path d="M 365.40 683.90 L 368.40 684.70 L 371.30 683.90 L 387.40 674.40 L 388.80 672.60 L 387.40 670.90 L 382.90 668.50 L 380.10 667.70 L 376.90 668.50 L 360.80 677.90 L 359.60 679.70 L 360.80 681.40 L 365.40 683.90 Z" fill="#57565e" fill-rule="nonzero" group-id="128,301,474" node-id="2156" stroke="none" target-height="17" target-width="29.199982" target-x="359.6" target-y="667.7"></path></g></g></g><g node-id="2781"><g node-id="2954"><g node-id="3127"><path d="M 412.60 659.70 L 414.00 658.00 L 412.60 656.20 L 408.40 653.70 L 405.50 652.90 L 402.40 653.70 L 386.40 663.20 L 385.00 665.00 L 386.40 666.70 L 390.60 669.20 L 393.60 670.00 L 396.50 669.20 L 412.60 659.70 Z" fill="#57565e" fill-rule="nonzero" group-id="129,302,475" node-id="2167" stroke="none" target-height="17.099976" target-width="29" target-x="385" target-y="652.9"></path></g></g></g><g node-id="2782"><g node-id="2955"><g node-id="3128"><path d="M 438.20 641.50 L 433.60 639.10 L 430.70 638.20 L 427.70 639.10 L 411.60 648.50 L 410.20 650.30 L 411.60 652.00 L 416.10 654.50 L 422.10 654.50 L 438.20 645.00 L 439.40 643.20 L 438.20 641.50 Z" fill="#57565e" fill-rule="nonzero" group-id="130,303,476" node-id="2178" stroke="none" target-height="16.299988" target-width="29.199982" target-x="410.2" target-y="638.2"></path></g></g></g><g node-id="2783"><g node-id="2956"><g node-id="3129"><path d="M 463.40 626.80 L 458.80 624.40 L 456.00 623.30 L 453.20 624.40 L 436.80 633.80 L 435.70 635.60 L 437.10 636.90 L 441.30 639.70 L 447.30 639.70 L 463.40 630.30 L 464.70 628.50 L 463.40 626.80 Z" fill="#57565e" fill-rule="nonzero" group-id="131,304,477" node-id="2189" stroke="none" target-height="16.400024" target-width="29" target-x="435.7" target-y="623.3"></path></g></g></g><g node-id="2784"><g node-id="2957"><g node-id="3130"><path d="M 466.50 625.10 L 472.40 625.10 L 488.60 615.60 L 490.00 613.80 L 488.60 612.10 L 484.40 609.70 L 481.50 608.80 L 478.40 609.70 L 462.30 619.10 L 460.90 620.90 L 462.30 622.20 L 466.50 625.10 Z" fill="#57565e" fill-rule="nonzero" group-id="132,305,478" node-id="2200" stroke="none" target-height="16.299988" target-width="29.100006" target-x="460.9" target-y="608.8"></path></g></g></g><g node-id="2785"><g node-id="2958"><g node-id="3131"><path d="M 487.50 604.40 L 486.50 606.20 L 487.50 607.50 L 492.10 610.30 L 498.00 610.30 L 514.10 600.90 L 515.30 599.20 L 514.10 597.40 L 509.60 595.00 L 506.80 594.30 L 503.60 595.00 L 487.50 604.40 Z" fill="#57565e" fill-rule="nonzero" group-id="133,306,479" node-id="2211" stroke="none" target-height="16" target-width="28.799988" target-x="486.5" target-y="594.3"></path></g></g></g><g node-id="2786"><g node-id="2959"><g node-id="3132"><path d="M 539.30 586.20 L 540.70 584.50 L 539.30 582.70 L 535.10 580.20 L 532.00 579.20 L 529.10 580.20 L 513.10 589.70 L 511.60 591.50 L 513.10 592.90 L 517.30 595.70 L 523.20 595.70 L 539.30 586.20 Z" fill="#57565e" fill-rule="nonzero" group-id="134,307,480" node-id="2222" stroke="none" target-height="16.5" target-width="29.100006" target-x="511.6" target-y="579.2"></path></g></g></g><g node-id="2787"><g node-id="2960"><g node-id="3133"><path d="M 564.90 571.50 L 566.10 569.70 L 564.90 568.00 L 560.30 565.60 L 557.40 564.70 L 554.40 565.60 L 538.30 574.60 L 536.90 576.40 L 538.30 578.10 L 542.80 580.60 L 545.60 581.60 L 548.40 580.60 L 564.90 571.50 Z" fill="#57565e" fill-rule="nonzero" group-id="135,308,481" node-id="2233" stroke="none" target-height="16.899963" target-width="29.199951" target-x="536.9" target-y="564.7"></path></g></g></g><g node-id="2788"><g node-id="2961"><g node-id="3134"><path d="M 590.10 553.30 L 585.50 550.90 L 582.70 549.80 L 579.90 550.90 L 563.50 560.00 L 562.20 561.70 L 563.50 563.50 L 568.00 565.90 L 571.10 566.80 L 574.00 565.90 L 590.10 556.80 L 591.50 555.10 L 590.10 553.30 Z" fill="#57565e" fill-rule="nonzero" group-id="136,309,482" node-id="2244" stroke="none" target-height="17" target-width="29.299988" target-x="562.2" target-y="549.8"></path></g></g></g><g node-id="2789"><g node-id="2962"><g node-id="3135"><path d="M 616.60 540.40 L 615.30 538.60 L 611.10 535.80 L 605.10 535.80 L 589.00 545.20 L 587.60 547.00 L 589.00 548.70 L 593.20 551.20 L 596.30 552.20 L 599.10 551.20 L 615.30 541.70 L 616.60 540.40 Z" fill="#57565e" fill-rule="nonzero" group-id="137,310,483" node-id="2255" stroke="none" target-height="16.400024" target-width="29" target-x="587.6" target-y="535.8"></path></g></g></g><g node-id="2790"><g node-id="2963"><g node-id="3136"><path d="M 630.30 521.10 L 614.20 530.60 L 613.00 532.30 L 614.20 534.10 L 618.80 536.50 L 621.60 537.50 L 624.70 536.50 L 640.80 527.10 L 641.90 525.70 L 640.80 523.90 L 636.30 521.10 L 630.30 521.10 Z" fill="#57565e" fill-rule="nonzero" group-id="138,311,484" node-id="2266" stroke="none" target-height="16.400024" target-width="28.900024" target-x="613" target-y="521.1"></path></g></g></g><g node-id="2791"><g node-id="2964"><g node-id="3137"><path d="M 667.40 511.00 L 666.00 509.20 L 661.80 506.40 L 655.90 506.40 L 639.80 515.90 L 638.40 517.60 L 639.80 519.40 L 644.00 521.80 L 647.00 522.70 L 649.90 521.80 L 666.00 512.40 L 667.40 511.00 Z" fill="#57565e" fill-rule="nonzero" group-id="139,312,485" node-id="2277" stroke="none" target-height="16.300018" target-width="29" target-x="638.4" target-y="506.4"></path></g></g></g><g node-id="2792"><g node-id="2965"><g node-id="3138"><path d="M 665.00 501.20 L 663.50 502.90 L 665.00 504.70 L 669.50 507.10 L 672.30 508.20 L 675.10 507.10 L 691.60 497.70 L 692.60 496.20 L 691.60 494.50 L 687.00 491.70 L 681.10 491.70 L 665.00 501.20 Z" fill="#57565e" fill-rule="nonzero" group-id="140,313,486" node-id="2288" stroke="none" target-height="16.5" target-width="29.099976" target-x="663.5" target-y="491.7"></path></g></g></g><g node-id="2793"><g node-id="2966"><g node-id="3139"><path d="M 331.80 694.70 L 330.40 696.50 L 331.80 698.20 L 335.90 700.70 L 339.00 701.70 L 341.90 700.70 L 362.20 689.10 L 363.30 687.40 L 361.90 685.60 L 357.70 683.20 L 354.80 682.30 L 351.70 683.20 L 331.80 694.70 Z" fill="#57565e" fill-rule="nonzero" group-id="141,314,487" node-id="2299" stroke="none" target-height="19.400024" target-width="32.899994" target-x="330.4" target-y="682.3"></path></g></g></g><g node-id="2794"><g node-id="2967"><g node-id="3140"><path d="M 423.50 709.40 L 407.40 700.00 L 404.50 699.10 L 401.40 700.00 L 370.90 717.50 L 369.60 719.20 L 370.90 721.00 L 387.40 730.40 L 390.20 731.50 L 393.00 730.40 L 423.50 712.60 L 424.90 711.20 L 423.50 709.40 Z" fill="#57565e" fill-rule="nonzero" group-id="142,315,488" node-id="2310" stroke="none" target-height="32.400024" target-width="55.299988" target-x="369.6" target-y="699.1"></path></g></g></g><g node-id="2795"><g node-id="2968"><g node-id="3141"><path d="M 445.50 707.30 L 442.70 706.20 L 439.90 707.30 L 396.50 732.50 L 395.40 734.20 L 396.50 735.70 L 413.00 745.10 L 416.00 746.00 L 418.90 745.10 L 462.00 720.20 L 463.40 718.50 L 462.00 716.70 L 445.50 707.30 Z" fill="#57565e" fill-rule="nonzero" group-id="143,316,489" node-id="2321" stroke="none" target-height="39.799988" target-width="68" target-x="395.4" target-y="706.2"></path></g></g></g><g node-id="2796"><g node-id="2969"><g node-id="3142"><path d="M 422.40 747.20 L 421.20 748.90 L 422.40 750.70 L 438.90 760.20 L 441.70 761.20 L 444.80 760.20 L 487.90 735.00 L 489.20 733.40 L 487.90 731.50 L 471.40 722.30 L 468.60 721.70 L 465.50 722.30 L 422.40 747.20 Z" fill="#57565e" fill-rule="nonzero" group-id="144,317,490" node-id="2332" stroke="none" target-height="39.5" target-width="68" target-x="421.2" target-y="721.7"></path></g></g></g><g node-id="2797"><g node-id="2970"><g node-id="3143"><path d="M 742.60 527.40 L 743.90 525.70 L 742.60 523.90 L 726.20 514.50 L 723.40 513.70 L 720.30 514.50 L 689.50 532.70 L 688.10 534.40 L 689.50 535.80 L 705.60 545.20 L 708.60 546.10 L 711.50 545.20 L 742.60 527.40 Z" fill="#57565e" fill-rule="nonzero" group-id="145,318,491" node-id="2343" stroke="none" target-height="32.399963" target-width="55.80005" target-x="688.1" target-y="513.7"></path></g></g></g><g node-id="2798"><g node-id="2971"><g node-id="3144"><path d="M 768.20 542.10 L 769.60 540.30 L 768.20 538.60 L 752.10 529.20 L 746.10 529.20 L 702.40 554.70 L 701.00 556.50 L 702.40 558.20 L 718.50 567.70 L 724.50 567.70 L 768.20 542.10 Z" fill="#57565e" fill-rule="nonzero" group-id="146,319,492" node-id="2354" stroke="none" target-height="38.5" target-width="68.599976" target-x="701" target-y="529.2"></path></g></g></g><g node-id="2799"><g node-id="2972"><g node-id="3145"><path d="M 781.90 579.90 L 783.20 578.40 L 781.90 576.40 L 777.30 574.00 L 771.40 574.00 L 755.30 583.40 L 754.00 584.90 L 755.30 586.90 L 759.80 589.40 L 762.70 590.40 L 765.80 589.40 L 781.90 579.90 Z" fill="#57565e" fill-rule="nonzero" group-id="147,320,493" node-id="2365" stroke="none" target-height="16.400024" target-width="29.200012" target-x="754" target-y="574"></path></g></g></g><g node-id="2800"><g node-id="2973"><g node-id="3146"><path d="M 793.80 583.40 L 789.20 580.90 L 786.30 580.10 L 783.30 580.90 L 767.10 590.40 L 765.80 592.20 L 767.10 593.60 L 771.70 596.40 L 777.30 596.40 L 793.80 586.90 L 795.00 585.20 L 793.80 583.40 Z" fill="#57565e" fill-rule="nonzero" group-id="148,321,494" node-id="2376" stroke="none" target-height="16.300049" target-width="29.200012" target-x="765.8" target-y="580.1"></path></g></g></g><g node-id="2801"><g node-id="2974"><g node-id="3147"><path d="M 689.80 587.60 L 691.20 585.80 L 689.80 584.10 L 673.70 574.60 L 667.80 574.60 L 651.60 584.10 L 650.20 585.80 L 651.60 587.60 L 667.80 597.10 L 670.80 598.10 L 673.70 597.10 L 689.80 587.60 Z" fill="#57565e" fill-rule="nonzero" group-id="149,322,495" node-id="2387" stroke="none" target-height="23.5" target-width="41" target-x="650.2" target-y="574.6"></path></g></g></g><g node-id="2802"><g node-id="2975"><g node-id="3148"><path d="M 715.40 572.90 L 716.60 571.40 L 715.40 569.40 L 698.90 560.00 L 693.00 560.00 L 676.90 569.40 L 675.60 571.20 L 676.90 572.90 L 693.30 582.40 L 699.30 582.40 L 715.40 572.90 Z" fill="#57565e" fill-rule="nonzero" group-id="150,323,496" node-id="2398" stroke="none" target-height="22.400024" target-width="41" target-x="675.6" target-y="560"></path></g></g></g><g node-id="2803"><g node-id="2976"><g node-id="3149"><path d="M 715.70 602.70 L 717.10 600.90 L 715.70 599.20 L 699.60 589.70 L 696.70 588.80 L 693.70 589.70 L 677.60 599.20 L 676.10 600.90 L 677.60 602.70 L 693.70 611.70 L 696.70 612.60 L 699.60 611.70 L 715.70 602.70 Z" fill="#57565e" fill-rule="nonzero" group-id="151,324,497" node-id="2409" stroke="none" target-height="23.799988" target-width="41" target-x="676.1" target-y="588.8"></path></g></g></g><g node-id="2804"><g node-id="2977"><g node-id="3150"><path d="M 741.20 588.00 L 742.60 586.00 L 741.20 584.50 L 724.80 575.00 L 721.90 574.10 L 718.90 575.00 L 702.80 584.50 L 701.20 586.00 L 702.80 588.00 L 719.20 597.10 L 722.10 598.10 L 725.10 597.10 L 741.20 588.00 Z" fill="#57565e" fill-rule="nonzero" group-id="152,325,498" node-id="2420" stroke="none" target-height="24" target-width="41.399963" target-x="701.2" target-y="574.1"></path></g></g></g><g node-id="2805"><g node-id="2978"><g node-id="3151"><path d="M 767.90 571.50 L 766.50 569.70 L 750.40 560.30 L 747.30 559.30 L 744.40 560.30 L 728.30 569.70 L 726.90 571.50 L 728.30 572.90 L 744.40 582.40 L 747.50 583.20 L 750.40 582.40 L 766.50 572.90 L 767.90 571.50 Z" fill="#57565e" fill-rule="nonzero" group-id="153,326,499" node-id="2431" stroke="none" target-height="23.900024" target-width="41" target-x="726.9" target-y="559.3"></path></g></g></g><g node-id="2806"><g node-id="2979"><g node-id="3152"><path d="M 794.10 553.70 L 777.70 544.20 L 774.90 543.10 L 772.10 544.20 L 753.50 555.10 L 752.10 556.80 L 753.50 558.20 L 769.60 567.70 L 772.70 568.70 L 775.60 567.70 L 794.10 557.20 L 795.50 555.40 L 794.10 553.70 Z" fill="#57565e" fill-rule="nonzero" group-id="154,327,500" node-id="2442" stroke="none" target-height="25.600037" target-width="43.400024" target-x="752.1" target-y="543.1"></path></g></g></g><g node-id="2807"><g node-id="2980"><g node-id="3153"><path d="M 639.40 617.00 L 640.60 615.20 L 639.40 613.50 L 623.00 604.40 L 620.10 603.50 L 617.00 604.40 L 600.90 613.50 L 599.70 615.00 L 600.90 617.00 L 617.40 626.50 L 620.20 627.50 L 623.30 626.50 L 639.40 617.00 Z" fill="#57565e" fill-rule="nonzero" group-id="155,328,501" node-id="2453" stroke="none" target-height="24" target-width="40.899963" target-x="599.7" target-y="603.5"></path></g></g></g><g node-id="2808"><g node-id="2981"><g node-id="3154"><path d="M 664.60 602.30 L 666.00 600.50 L 664.60 598.80 L 648.50 589.40 L 642.50 589.40 L 626.50 598.80 L 625.00 600.50 L 626.50 602.30 L 642.50 611.70 L 645.60 612.60 L 648.50 611.70 L 664.60 602.30 Z" fill="#57565e" fill-rule="nonzero" group-id="156,329,502" node-id="2464" stroke="none" target-height="23.199951" target-width="41" target-x="625" target-y="589.4"></path></g></g></g><g node-id="2809"><g node-id="2982"><g node-id="3155"><path d="M 665.30 632.10 L 666.40 630.30 L 665.00 628.60 L 648.90 619.10 L 646.00 618.20 L 642.90 619.10 L 626.80 628.60 L 625.40 630.30 L 626.80 632.10 L 643.30 641.50 L 648.90 641.50 L 665.30 632.10 Z" fill="#57565e" fill-rule="nonzero" group-id="157,330,503" node-id="2475" stroke="none" target-height="23.299988" target-width="41" target-x="625.4" target-y="618.2"></path></g></g></g><g node-id="2810"><g node-id="2983"><g node-id="3156"><path d="M 690.50 617.40 L 691.90 615.60 L 690.50 613.80 L 674.10 604.40 L 671.30 603.40 L 668.50 604.40 L 652.00 613.80 L 650.80 615.60 L 652.00 617.40 L 668.50 626.80 L 674.40 626.80 L 690.50 617.40 Z" fill="#57565e" fill-rule="nonzero" group-id="158,331,504" node-id="2486" stroke="none" target-height="23.399963" target-width="41.100037" target-x="650.8" target-y="603.4"></path></g></g></g><g node-id="2811"><g node-id="2984"><g node-id="3157"><path d="M 590.10 645.00 L 588.60 643.20 L 572.20 633.80 L 569.40 632.70 L 566.60 633.80 L 550.10 643.20 L 549.10 645.00 L 550.10 646.40 L 566.60 655.90 L 569.70 656.70 L 572.60 655.90 L 588.60 646.40 L 590.10 645.00 Z" fill="#57565e" fill-rule="nonzero" group-id="159,332,505" node-id="2497" stroke="none" target-height="24" target-width="41" target-x="549.1" target-y="632.7"></path></g></g></g><g node-id="2812"><g node-id="2985"><g node-id="3158"><path d="M 613.90 631.70 L 615.20 630.00 L 613.90 628.20 L 597.80 619.10 L 594.90 618.20 L 591.80 619.10 L 575.70 628.20 L 574.30 630.00 L 575.70 631.70 L 591.80 641.20 L 594.90 642.00 L 597.80 641.20 L 613.90 631.70 Z" fill="#57565e" fill-rule="nonzero" group-id="160,333,506" node-id="2508" stroke="none" target-height="23.799988" target-width="40.900024" target-x="574.3" target-y="618.2"></path></g></g></g><g node-id="2813"><g node-id="2986"><g node-id="3159"><path d="M 614.60 661.50 L 615.80 659.70 L 614.60 658.00 L 598.10 648.50 L 592.10 648.50 L 576.10 658.00 L 574.80 659.70 L 576.10 661.50 L 592.50 670.90 L 598.50 670.90 L 614.60 661.50 Z" fill="#57565e" fill-rule="nonzero" group-id="161,334,507" node-id="2519" stroke="none" target-height="22.400024" target-width="41" target-x="574.8" target-y="648.5"></path></g></g></g><g node-id="2814"><g node-id="2987"><g node-id="3160"><path d="M 639.80 646.80 L 641.10 645.00 L 639.80 643.20 L 623.60 633.80 L 617.70 633.80 L 601.60 643.20 L 600.20 645.00 L 601.60 646.80 L 617.70 656.20 L 623.60 656.20 L 639.80 646.80 Z" fill="#57565e" fill-rule="nonzero" group-id="162,335,508" node-id="2530" stroke="none" target-height="22.400024" target-width="40.899963" target-x="600.2" target-y="633.8"></path></g></g></g><g node-id="2815"><g node-id="2988"><g node-id="3161"><path d="M 515.90 685.20 L 518.90 686.10 L 521.80 685.20 L 537.90 675.80 L 539.30 674.40 L 537.90 672.70 L 521.80 663.20 L 518.70 662.20 L 515.90 663.20 L 499.80 672.70 L 498.40 674.40 L 499.80 675.80 L 515.90 685.20 Z" fill="#57565e" fill-rule="nonzero" group-id="163,336,509" node-id="2541" stroke="none" target-height="23.899963" target-width="40.899994" target-x="498.4" target-y="662.2"></path></g></g></g><g node-id="2816"><g node-id="2989"><g node-id="3162"><path d="M 523.60 659.70 L 524.90 661.10 L 541.40 670.60 L 544.20 671.60 L 547.00 670.60 L 563.50 661.10 L 564.50 659.70 L 563.10 658.00 L 547.00 648.50 L 544.10 647.60 L 541.10 648.50 L 524.90 658.00 L 523.60 659.70 Z" fill="#57565e" fill-rule="nonzero" group-id="164,337,510" node-id="2552" stroke="none" target-height="24" target-width="40.900024" target-x="523.6" target-y="647.6"></path></g></g></g><g node-id="2817"><g node-id="2990"><g node-id="3163"><path d="M 563.80 690.90 L 565.20 689.10 L 563.80 687.40 L 547.40 677.90 L 541.80 677.90 L 525.30 687.40 L 524.10 689.10 L 525.30 690.90 L 541.80 700.30 L 544.80 701.20 L 547.70 700.30 L 563.80 690.90 Z" fill="#57565e" fill-rule="nonzero" group-id="165,338,511" node-id="2563" stroke="none" target-height="23.299988" target-width="41.100037" target-x="524.1" target-y="677.9"></path></g></g></g><g node-id="2818"><g node-id="2991"><g node-id="3164"><path d="M 589.00 676.20 L 590.40 674.40 L 589.00 672.70 L 572.90 663.20 L 567.00 663.20 L 550.90 672.70 L 549.50 674.40 L 550.90 676.20 L 567.00 685.60 L 572.90 685.60 L 589.00 676.20 Z" fill="#57565e" fill-rule="nonzero" group-id="166,339,512" node-id="2574" stroke="none" target-height="22.399963" target-width="40.900024" target-x="549.5" target-y="663.2"></path></g></g></g><g node-id="2819"><g node-id="2992"><g node-id="3165"><path d="M 488.60 703.80 L 487.10 702.10 L 471.10 692.60 L 468.20 691.70 L 465.10 692.60 L 449.00 702.10 L 447.60 703.80 L 449.00 705.60 L 465.10 714.70 L 468.20 715.70 L 471.10 714.70 L 487.10 705.60 L 488.60 703.80 Z" fill="#57565e" fill-rule="nonzero" group-id="167,340,513" node-id="2585" stroke="none" target-height="24" target-width="41" target-x="447.6" target-y="691.7"></path></g></g></g><g node-id="2820"><g node-id="2993"><g node-id="3166"><path d="M 490.30 677.90 L 474.20 687.40 L 473.20 689.10 L 474.20 690.50 L 490.60 700.00 L 493.50 701.00 L 496.60 700.00 L 512.70 690.50 L 513.80 689.10 L 512.70 687.40 L 496.30 677.90 L 493.50 677.20 L 490.30 677.90 Z" fill="#57565e" fill-rule="nonzero" group-id="168,341,514" node-id="2596" stroke="none" target-height="23.799988" target-width="40.599976" target-x="473.2" target-y="677.2"></path></g></g></g><g node-id="2821"><g node-id="2994"><g node-id="3167"><path d="M 513.10 720.20 L 514.40 718.50 L 513.10 716.70 L 497.00 707.70 L 493.90 706.60 L 491.00 707.70 L 474.90 716.70 L 473.50 718.50 L 474.90 720.20 L 491.00 729.70 L 494.10 730.60 L 497.00 729.70 L 513.10 720.20 Z" fill="#57565e" fill-rule="nonzero" group-id="169,342,515" node-id="2607" stroke="none" target-height="24" target-width="40.900024" target-x="473.5" target-y="706.6"></path></g></g></g><g node-id="2822"><g node-id="2995"><g node-id="3168"><path d="M 538.60 705.60 L 539.80 703.80 L 538.60 702.10 L 522.10 692.60 L 519.10 692.00 L 516.20 692.90 L 500.10 702.10 L 498.70 703.80 L 500.10 705.60 L 516.60 715.00 L 519.40 716.00 L 522.10 715.00 L 538.60 705.60 Z" fill="#57565e" fill-rule="nonzero" group-id="170,343,516" node-id="2618" stroke="none" target-height="24" target-width="41.099976" target-x="498.7" target-y="692"></path></g></g></g><g node-id="2823"><g node-id="2996"><g node-id="3169"><path d="M 743.00 616.30 L 744.20 614.80 L 743.00 612.80 L 726.50 603.40 L 720.60 603.40 L 704.50 612.80 L 703.30 614.60 L 704.50 616.30 L 721.00 625.70 L 726.90 625.70 L 743.00 616.30 Z" fill="#57565e" fill-rule="nonzero" group-id="171,344,517" node-id="2629" stroke="none" target-height="22.299988" target-width="40.900024" target-x="703.3" target-y="603.4"></path></g></g></g><g node-id="2824"><g node-id="2997"><g node-id="3170"><path d="M 768.20 601.60 L 769.60 599.80 L 768.20 598.10 L 752.10 588.70 L 746.10 588.70 L 730.10 598.10 L 728.60 599.80 L 730.10 601.60 L 746.10 611.10 L 752.10 611.10 L 768.20 601.60 Z" fill="#57565e" fill-rule="nonzero" group-id="172,345,518" node-id="2640" stroke="none" target-height="22.399963" target-width="41" target-x="728.6" target-y="588.7"></path></g></g></g><path d="M 819.70 571.90 L 820.90 570.10 L 819.70 568.40 L 803.20 558.90 L 800.40 558.20 L 797.20 558.90 L 781.10 568.40 L 779.90 570.10 L 781.10 571.90 L 797.60 581.30 L 803.60 581.30 L 819.70 571.90 Z" fill="#57565e" fill-rule="nonzero" group-id="173,346,519" node-id="2651" stroke="none" target-height="23.099976" target-width="41" target-x="779.9" target-y="558.2"></path></svg>